<svg width="891" height="256" viewBox="0 0 891 256" fill="none" xmlns="http://www.w3.org/2000/svg">
<path d="M396.198 248.798C386.712 244.222 379.393 237.776 374.23 229.466C369.068 221.157 366.49 211.581 366.49 200.741C366.49 189.177 369.428 179.003 375.311 170.207C381.189 161.417 389.594 154.667 400.521 149.972C411.443 145.272 424.11 142.928 438.511 142.928H480.644C484.483 142.928 487.242 142.205 488.925 140.759C490.603 139.312 491.447 137.143 491.447 134.257C491.447 121.732 487.123 111.615 478.482 103.904C469.84 96.1985 457.956 92.3402 442.829 92.3402C433.945 92.3402 425.906 94.0293 418.7 97.4018C411.499 100.78 405.673 105.231 401.236 110.773C396.794 116.315 394.334 122.461 393.856 129.201H366.129C367.328 117.637 371.466 107.158 378.554 97.7633C385.631 88.3689 394.875 81.025 406.281 75.7205C417.681 70.4217 429.987 67.7723 443.195 67.7723C458.8 67.7723 472.362 70.6081 483.886 76.2628C495.41 81.9232 504.35 89.815 510.718 99.9326C517.074 110.05 520.26 121.857 520.26 135.347V252.786H491.453V221.349L489.291 224.964C485.688 231.229 480.829 236.652 474.704 241.222C468.585 245.804 461.677 249.351 453.998 251.882C446.313 254.413 438.027 255.678 429.148 255.678C416.662 255.678 405.678 253.385 396.198 248.815V248.798ZM476.145 215.01C486.347 204.294 491.453 189.533 491.453 170.744V166.767H440.318C426.868 166.767 416.127 169.784 408.088 175.8C400.043 181.822 396.023 190.019 396.023 200.374C396.023 209.768 399.446 217.236 406.286 222.778C413.126 228.32 422.19 231.088 433.478 231.088C451.718 231.088 465.944 225.732 476.151 215.01H476.145Z" fill="#0A0B0C"/>
<path d="M578.595 243.375C565.63 235.189 555.727 223.987 548.887 209.768C542.047 195.555 538.624 179.54 538.624 161.705C538.624 143.871 542.047 127.862 548.887 113.643C555.727 99.4298 565.636 88.2276 578.595 80.0364C591.56 71.8509 607.279 67.7497 625.772 67.7497C638.253 67.7497 650.081 70.7663 661.245 76.7826C672.409 82.8045 680.747 90.6398 686.275 100.272V0.0451928H715.082V252.769H686.275V222.778C680.752 232.658 672.409 240.606 661.245 246.628C650.081 252.65 638.135 255.661 625.412 255.661C607.166 255.661 591.56 251.566 578.595 243.375ZM660.159 221.157C669.161 215.502 676.181 207.548 681.225 197.306C686.269 187.07 688.786 175.207 688.786 161.711C688.786 140.996 683.325 124.489 672.403 112.208C661.476 99.9213 646.889 93.7807 628.649 93.7807C616.641 93.7807 606.141 96.6166 597.139 102.271C588.137 107.932 581.117 115.886 576.073 126.122C571.029 136.364 568.512 148.227 568.512 161.717C568.512 182.438 573.967 198.939 584.895 211.22C595.816 223.507 610.403 229.647 628.649 229.647C640.652 229.647 651.157 226.817 660.159 221.157Z" fill="#0A0B0C"/>
<path d="M766.938 248.798C757.452 244.222 750.133 237.776 744.971 229.466C739.802 221.157 737.23 211.581 737.23 200.741C737.23 189.177 740.168 179.003 746.051 170.207C751.929 161.417 760.334 154.667 771.261 149.972C782.183 145.272 794.85 142.928 809.251 142.928H851.384C855.223 142.928 857.982 142.205 859.665 140.759C861.343 139.312 862.187 137.143 862.187 134.257C862.187 121.732 857.863 111.615 849.222 103.904C840.58 96.1985 828.696 92.3402 813.569 92.3402C804.685 92.3402 796.646 94.0293 789.44 97.4018C782.239 100.78 776.413 105.231 771.976 110.773C767.529 116.315 765.074 122.461 764.596 129.201H736.869C738.068 117.637 742.212 107.158 749.294 97.7633C756.371 88.3689 765.615 81.025 777.021 75.7205C788.421 70.4217 800.727 67.7723 813.935 67.7723C829.54 67.7723 843.102 70.6081 854.626 76.2628C866.15 81.9232 875.09 89.815 881.458 99.9326C887.814 110.05 891 121.857 891 135.347V252.786H862.193V221.349L860.031 224.964C856.428 231.229 851.569 236.652 845.444 241.222C839.325 245.804 832.417 249.351 824.738 251.882C817.053 254.413 808.767 255.678 799.888 255.678C787.402 255.678 776.418 253.385 766.938 248.815V248.798ZM846.885 215.01C857.087 204.294 862.193 189.533 862.193 170.744V166.767H811.058C797.608 166.767 786.867 169.784 778.828 175.8C770.783 181.822 766.763 190.019 766.763 200.374C766.763 209.768 770.186 217.236 777.026 222.778C783.866 228.32 792.93 231.088 804.212 231.088C822.452 231.088 836.679 225.732 846.885 215.01Z" fill="#0A0B0C"/>
<path d="M123.589 0C41.2715 0 -0.0281343 73.7038 1.43792e-05 122.28V252.786H55.8413C55.8413 184.161 191.445 184.319 191.445 252.786H247.207V122.382C247.207 73.7151 205.913 0.0056491 123.589 0.0056491V0ZM123.629 178.947C90.74 178.969 64.0719 152.209 64.0945 119.207C64.117 86.7589 91.2016 59.5754 123.544 59.5528C156.433 59.5302 183.101 86.29 183.079 119.292C183.056 151.74 155.972 178.924 123.629 178.947Z" fill="#0A0B0C"/>
</svg>
