<?xml version="1.0" encoding="UTF-8"?>
<svg version="1.1" xmlns="http://www.w3.org/2000/svg" width="180" height="180">
<path d="M0 0 C0.97544266 -0.00511093 1.95088531 -0.01022186 2.95588684 -0.01548767 C6.15058693 -0.02928122 9.34506876 -0.02843448 12.53979492 -0.02612305 C14.78122537 -0.03001587 17.02265508 -0.03435174 19.26408386 -0.03910828 C23.95179642 -0.04654873 28.63943364 -0.04629521 33.32714844 -0.04101562 C39.30513009 -0.03522704 45.28280131 -0.05214813 51.2607317 -0.0753603 C55.88756585 -0.09016338 60.51432639 -0.09096036 65.14118004 -0.08785057 C67.34377341 -0.08836058 69.54637126 -0.09353749 71.74894142 -0.10366249 C89.17963507 -0.17395918 104.42793416 -0.11821035 117.99291992 12.38012695 C128.1879558 23.14684709 131.02237758 35.09367005 130.98242188 49.56689453 C130.98753281 50.54233719 130.99264374 51.51777985 130.99790955 52.52278137 C131.0117031 55.71748146 131.01085636 58.91196329 131.00854492 62.10668945 C131.01243775 64.3481199 131.01677362 66.58954961 131.02153015 68.83097839 C131.0289706 73.51869096 131.02871708 78.20632818 131.0234375 82.89404297 C131.01764892 88.87202462 131.03457 94.84969584 131.05778217 100.82762623 C131.07258526 105.45446038 131.07338223 110.08122093 131.07027245 114.70807457 C131.07078246 116.91066794 131.07595936 119.11326579 131.08608437 121.31583595 C131.15638106 138.7465296 131.10063223 153.99482869 118.60229492 167.55981445 C107.83557479 177.75485033 95.88875183 180.58927211 81.41552734 180.54931641 C80.44008469 180.55442734 79.46464203 180.55953827 78.4596405 180.56480408 C75.26494041 180.57859763 72.07045858 180.57775089 68.87573242 180.57543945 C66.63430198 180.57933228 64.39287226 180.58366815 62.15144348 180.58842468 C57.46373092 180.59586513 52.7760937 180.59561162 48.08837891 180.59033203 C42.11039725 180.58454345 36.13272604 180.60146453 30.15479565 180.6246767 C25.52796149 180.63947979 20.90120095 180.64027677 16.27434731 180.63716698 C14.07175393 180.63767699 11.86915608 180.64285389 9.66658592 180.6529789 C-7.76410772 180.72327559 -23.01240682 180.66752676 -36.57739258 168.16918945 C-46.77242846 157.40246932 -49.60685024 145.45564636 -49.56689453 130.98242188 C-49.57200546 130.00697922 -49.57711639 129.03153656 -49.5823822 128.02653503 C-49.59617576 124.83183495 -49.59532901 121.63735311 -49.59301758 118.44262695 C-49.5969104 116.20119651 -49.60124627 113.95976679 -49.60600281 111.71833801 C-49.61344326 107.03062545 -49.61318974 102.34298823 -49.60791016 97.65527344 C-49.60212157 91.67729178 -49.61904266 85.69962057 -49.64225483 79.72169018 C-49.65705791 75.09485602 -49.65785489 70.46809548 -49.6547451 65.84124184 C-49.65525511 63.63864846 -49.66043202 61.43605062 -49.67055702 59.23348045 C-49.74085371 41.80278681 -49.68510489 26.55448771 -37.18676758 12.98950195 C-26.42004744 2.79446607 -14.47322448 -0.03995571 0 0 Z " fill="#5B5BD6" transform="translate(49.292236328125,-0.274658203125)"/>
<path d="M0 0 C0.91265625 -0.04898438 1.8253125 -0.09796875 2.765625 -0.1484375 C7.66572359 0.71100388 11.14976004 3.15878051 14.06542969 7.19677734 C15.3104892 9.34208665 16.41820586 11.51794373 17.5 13.75 C17.91483643 14.56927979 18.32967285 15.38855957 18.75708008 16.23266602 C22.58391264 23.85279372 26.19291273 31.58165448 29.84790039 39.28515625 C35.62044565 51.39156641 41.52878209 63.38827949 52.75 71.375 C41.25634018 72.14238085 41.25634018 72.14238085 36.4375 69.6875 C35.11328125 68.25390625 35.11328125 68.25390625 33.75 66.375 C33.18667969 65.60027344 32.62335938 64.82554688 32.04296875 64.02734375 C22.57827068 49.70500023 15.79659033 33.32577042 8.93359375 17.6328125 C7.74775955 15.37072614 6.74625473 13.95599372 4.75 12.375 C1.03816886 11.41267341 -1.23954781 10.92797968 -4.79296875 12.5 C-7.84888844 14.83202139 -8.68551506 16.71347036 -10.1875 20.25 C-10.77715475 21.58587181 -11.36990658 22.9203786 -11.96484375 24.25390625 C-12.48280518 25.42590576 -12.48280518 25.42590576 -13.01123047 26.62158203 C-15.37195343 31.86877035 -17.84436738 37.06276793 -20.32766724 42.25274658 C-21.23014159 44.14584352 -22.12096122 46.04412544 -23.01147461 47.94287109 C-31.98345236 66.85504487 -31.98345236 66.85504487 -39.25 71.375 C-42.703125 71.66796875 -42.703125 71.66796875 -46.5 71.5625 C-47.76328125 71.53542969 -49.0265625 71.50835937 -50.328125 71.48046875 C-51.29234375 71.44566406 -52.2565625 71.41085938 -53.25 71.375 C-52.47398438 70.75882812 -51.69796875 70.14265625 -50.8984375 69.5078125 C-41.4508157 61.8995507 -35.79449405 52.14112842 -30.8125 41.25 C-29.86290554 39.22352398 -28.91237966 37.19748417 -27.9609375 35.171875 C-27.27209473 33.69557617 -27.27209473 33.69557617 -26.56933594 32.18945312 C-14.82711684 7.14054458 -14.82711684 7.14054458 -8.25 1.375 C-5.3024967 0.3924989 -3.08714157 0.11210291 0 0 Z " fill="#F9F9FD" transform="translate(102.25,49.625)"/>
<path d="M0 0 C0.79921875 0.01804688 1.5984375 0.03609375 2.421875 0.0546875 C3.02515625 0.07789063 3.6284375 0.10109375 4.25 0.125 C3.63125 0.3725 3.0125 0.62 2.375 0.875 C-0.1847972 2.38076306 -0.59524051 3.43378228 -1.75 6.125 C-2.72528967 7.73152672 -3.70506259 9.33533434 -4.6875 10.9375 C-8.21894798 16.94096157 -11.21522122 23.14106956 -14.1875 29.4375 C-31.29929053 65.59502746 -31.29929053 65.59502746 -40.75 70.125 C-43.1015625 70.48828125 -43.1015625 70.48828125 -45.375 70.4375 C-46.13039063 70.43363281 -46.88578125 70.42976563 -47.6640625 70.42578125 C-49.75 70.125 -49.75 70.125 -52.75 68.125 C-51.925 67.650625 -51.1 67.17625 -50.25 66.6875 C-38.2821942 58.53145436 -32.4388825 44.39615973 -26.0546875 31.921875 C-25.72749222 31.2840509 -25.40029694 30.64622681 -25.06318665 29.98907471 C-23.41498623 26.77487651 -21.77569699 23.55678476 -20.15405273 20.32910156 C-9.7173595 -0.28580469 -9.7173595 -0.28580469 0 0 Z " fill="#F8F8FD" transform="translate(79.75,50.875)"/>
<path d="M0 0 C2.60096012 3.13480425 3.99776923 6.18163571 5.41796875 9.98828125 C5.86382324 11.16318115 6.30967773 12.33808105 6.76904297 13.54858398 C7.00057068 14.16418182 7.23209839 14.77977966 7.47064209 15.41403198 C14.53412789 35.34170497 14.53412789 35.34170497 27 52 C28.33333333 53.33333333 29.66666667 54.66666667 31 56 C19.05644699 56.56475645 19.05644699 56.56475645 15 53 C11.52272258 49.07728621 9.35048339 45.02970831 7.1875 40.3125 C6.84855713 39.57862061 6.50961426 38.84474121 6.16040039 38.08862305 C3.63557022 32.54572642 1.22643073 26.95681502 -1.0625 21.3125 C-1.37356689 20.57104736 -1.68463379 19.82959473 -2.00512695 19.06567383 C-4.08349975 13.78693215 -4.18368536 10.32413195 -2.24609375 4.8828125 C-1.49739583 3.25520833 -0.74869792 1.62760417 0 0 Z " fill="#F7F7FD" transform="translate(102,66)"/>
</svg>
