<?xml version="1.0" encoding="UTF-8"?>
<svg version="1.1" xmlns="http://www.w3.org/2000/svg" width="132" height="48">
<path d="M0 0 C43.56 0 87.12 0 132 0 C132 15.84 132 31.68 132 48 C88.44 48 44.88 48 0 48 C0 32.16 0 16.32 0 0 Z " fill="#110F0F" transform="translate(0,0)"/>
<path d="M0 0 C3.63 0 7.26 0 11 0 C10.34 0.66 9.68 1.32 9 2 C8.53837573 4.43252661 8.53837573 4.43252661 8.375 7.125 C8.25125 8.73375 8.1275 10.3425 8 12 C11.96 12 15.92 12 20 12 C19.855625 10.39125 19.71125 8.7825 19.5625 7.125 C19.48128906 6.22007813 19.40007813 5.31515625 19.31640625 4.3828125 C19.13010715 1.98889139 19.13010715 1.98889139 18 0 C21.3 0 24.6 0 28 0 C27.34 0.66 26.68 1.32 26 2 C25.68918523 4.37528893 25.68918523 4.37528893 25.734375 7.12109375 C25.73179688 8.13880859 25.72921875 9.15652344 25.7265625 10.20507812 C25.73429687 11.27177734 25.74203125 12.33847656 25.75 13.4375 C25.74226563 14.50033203 25.73453125 15.56316406 25.7265625 16.65820312 C25.73042969 18.18670898 25.73042969 18.18670898 25.734375 19.74609375 C25.73663086 20.68122803 25.73888672 21.6163623 25.74121094 22.57983398 C25.83887292 25.25998896 25.83887292 25.25998896 28 28 C24.37 28 20.74 28 17 28 C17.33 27.34 17.66 26.68 18 26 C18.66 26 19.32 26 20 26 C20 22.04 20 18.08 20 14 C16.04 14 12.08 14 8 14 C8 17.96 8 21.92 8 26 C8.99 26.33 9.98 26.66 11 27 C11 27.33 11 27.66 11 28 C7.37 28 3.74 28 0 28 C0.33 27.34 0.66 26.68 1 26 C1.66 26 2.32 26 3 26 C2.89049976 22.0410768 2.75978332 18.08313674 2.625 14.125 C2.57859375 12.43310547 2.57859375 12.43310547 2.53125 10.70703125 C2.49257812 9.63066406 2.45390625 8.55429688 2.4140625 7.4453125 C2.3826416 6.45031738 2.3512207 5.45532227 2.31884766 4.43017578 C2.22752917 1.82145483 2.22752917 1.82145483 0 0 Z " fill="#D7E4E4" transform="translate(5,7)"/>
<path d="M0 0 C0.804375 0.185625 1.60875 0.37125 2.4375 0.5625 C3.0975 0.2325 3.7575 -0.0975 4.4375 -0.4375 C6.31129605 -0.50783769 8.18751102 -0.5218022 10.0625 -0.5 C11.56683594 -0.48646484 11.56683594 -0.48646484 13.1015625 -0.47265625 C13.87242188 -0.46105469 14.64328125 -0.44945312 15.4375 -0.4375 C15.23253906 0.30886719 15.02757813 1.05523438 14.81640625 1.82421875 C14.38786747 4.9211846 14.71483528 5.80929089 16.375 8.375 C17.055625 9.426875 17.73625 10.47875 18.4375 11.5625 C19.13976141 10.32073305 19.82379109 9.06864401 20.5 7.8125 C21.07427734 6.76835937 21.07427734 6.76835937 21.66015625 5.703125 C22.5687406 3.20109372 22.32086837 2.0292645 21.4375 -0.4375 C23.7475 -0.4375 26.0575 -0.4375 28.4375 -0.4375 C25.10416667 6.22916667 21.77083333 12.89583333 18.4375 19.5625 C17.7775 19.5625 17.1175 19.5625 16.4375 19.5625 C15.26595707 17.27320947 14.10011926 14.98131638 12.9375 12.6875 C12.60363281 12.03652344 12.26976563 11.38554687 11.92578125 10.71484375 C9.4375 5.7890625 9.4375 5.7890625 9.4375 3.5625 C7.43795254 3.51995644 5.43708364 3.52169217 3.4375 3.5625 C1.63845222 5.36154778 2.26453457 8.01313451 2.25 10.4375 C2.23582031 11.50742187 2.22164062 12.57734375 2.20703125 13.6796875 C2.2180222 16.76046434 2.2180222 16.76046434 4.4375 19.5625 C1.1375 19.5625 -2.1625 19.5625 -5.5625 19.5625 C-4.5725 18.0775 -4.5725 18.0775 -3.5625 16.5625 C-3.26797416 14.17572924 -3.0696783 11.77623906 -2.9375 9.375 C-2.86273438 8.10269531 -2.78796875 6.83039062 -2.7109375 5.51953125 C-2.66195312 4.54371094 -2.61296875 3.56789063 -2.5625 2.5625 C-3.5525 2.2325 -4.5425 1.9025 -5.5625 1.5625 C-2.5625 -0.4375 -2.5625 -0.4375 0 0 Z " fill="#E5E7DD" transform="translate(59.5625,15.4375)"/>
<path d="M0 0 C1.16015625 -0.03867188 1.16015625 -0.03867188 2.34375 -0.078125 C4.5 0.25 4.5 0.25 6.24609375 1.328125 C8.13474683 4.22288299 7.95209255 6.83093072 8.0625 10.25 C8.14408484 15.59463059 8.14408484 15.59463059 10.5 20.25 C7.16666667 20.25 3.83333333 20.25 0.5 20.25 C-1.0159375 20.311875 -1.0159375 20.311875 -2.5625 20.375 C-5.5 20.25 -5.5 20.25 -7.5 18.25 C-7.875 15.3125 -7.875 15.3125 -7.5 12.25 C-4.5060264 8.77699062 -0.89195091 8.67230297 3.5 8.25 C3.17 6.6 2.84 4.95 2.5 3.25 C-1.77343092 2.88370592 -3.98812804 3.84185923 -7.5 6.25 C-7.5 4.6 -7.5 2.95 -7.5 1.25 C-4.73952457 0.32984152 -2.86637731 0.05732755 0 0 Z " fill="#F4F7ED" transform="translate(42.5,14.75)"/>
<path d="M0 0 C2.4375 1.6875 2.4375 1.6875 4 4 C4 5.65 4 7.3 4 9 C-0.29 9 -4.58 9 -9 9 C-7.3672149 12.74667202 -7.3672149 12.74667202 -5 16 C-1.37940768 16.29356154 0.87703962 15.85064319 4 14 C2.84826645 16.46800047 1.95216435 18.04783565 0 20 C-4.1531674 20.47016989 -6.3017202 20.44021988 -9.875 18.1875 C-12.62945506 15.35203155 -12.95042575 13.5354019 -13.3125 9.625 C-12.94884973 5.40665686 -11.95115008 3.95115008 -9 1 C-5.90826248 -0.54586876 -3.40570448 -0.29359521 0 0 Z " fill="#E7EBE7" transform="translate(100,15)"/>
<path d="M0 0 C3.3 0 6.6 0 10 0 C9.34 1.32 8.68 2.64 8 4 C8.8426307 6.2193451 8.8426307 6.2193451 10.375 8.25 C10.85710937 8.95640625 11.33921875 9.6628125 11.8359375 10.390625 C12.22007813 10.92171875 12.60421875 11.4528125 13 12 C15.91519551 6.23647361 15.91519551 6.23647361 15 0 C17.31 0 19.62 0 22 0 C21.42765625 1.1034375 20.8553125 2.206875 20.265625 3.34375 C17.7966006 8.28179879 15.76566999 13.36377424 13.75 18.5 C13.38648437 19.4178125 13.02296875 20.335625 12.6484375 21.28125 C11.76242667 23.51959315 10.87968743 25.75916593 10 28 C8.35 28 6.7 28 5 28 C5.44214844 27.52433594 5.88429688 27.04867187 6.33984375 26.55859375 C8.29589436 23.96168549 9.3058921 22.20293163 10 19 C8.97423249 14.74784877 6.7934457 10.97190329 4.70703125 7.16015625 C3 4 3 4 3 2 C2.01 1.67 1.02 1.34 0 1 C0 0.67 0 0.34 0 0 Z " fill="#ECF0EA" transform="translate(104,15)"/>
<path d="M0 0 C3.3 0 6.6 0 10 0 C9.34 0.66 8.68 1.32 8 2 C7.68918523 4.37528893 7.68918523 4.37528893 7.734375 7.12109375 C7.73179688 8.13880859 7.72921875 9.15652344 7.7265625 10.20507812 C7.73429687 11.27177734 7.74203125 12.33847656 7.75 13.4375 C7.74226563 14.50033203 7.73453125 15.56316406 7.7265625 16.65820312 C7.73042969 18.18670898 7.73042969 18.18670898 7.734375 19.74609375 C7.73663086 20.68122803 7.73888672 21.6163623 7.74121094 22.57983398 C7.83887292 25.25998896 7.83887292 25.25998896 10 28 C6.37 28 2.74 28 -1 28 C-0.01 27.01 0.98 26.02 2 25 C2.57947281 22.03756274 2.57947281 22.03756274 2.6875 18.8125 C2.790625 16.894375 2.89375 14.97625 3 13 C-1.29 13 -5.58 13 -10 13 C-10 12.67 -10 12.34 -10 12 C-6.04 12 -2.08 12 2 12 C1.855625 10.39125 1.71125 8.7825 1.5625 7.125 C1.48128906 6.22007813 1.40007813 5.31515625 1.31640625 4.3828125 C1.13010715 1.98889139 1.13010715 1.98889139 0 0 Z " fill="#E9ECE4" transform="translate(23,7)"/>
<path d="M0 0 C0.08090971 1.62418745 0.13914995 3.24951745 0.1875 4.875 C0.22230469 5.77992187 0.25710937 6.68484375 0.29296875 7.6171875 C0.19628906 8.40351563 0.09960938 9.18984375 0 10 C-3.45245824 12.30163882 -4.94738713 12.34490322 -9 12 C-11 10 -11 10 -11.375 7.0625 C-11 4 -11 4 -9.25 2.1875 C-6.00361537 0.47413033 -3.66768083 0 0 0 Z " fill="#E9EDEC" transform="translate(46,23)"/>
<path d="M0 0 C0 5.61 0 11.22 0 17 C1.32 17.66 2.64 18.32 4 19 C4 19.33 4 19.66 4 20 C0.7 20 -2.6 20 -6 20 C-5.01 18.515 -5.01 18.515 -4 17 C-3.70547416 14.61322924 -3.5071783 12.21373906 -3.375 9.8125 C-3.30023438 8.54019531 -3.22546875 7.26789062 -3.1484375 5.95703125 C-3.09945312 4.98121094 -3.05046875 4.00539063 -3 3 C-3.99 2.67 -4.98 2.34 -6 2 C-3 0 -3 0 0 0 Z " fill="#F4F8F7" transform="translate(60,15)"/>
<path d="M0 0 C2.31 0 4.62 0 7 0 C6.401875 1.155 5.80375 2.31 5.1875 3.5 C3.14157173 7.57729478 1.53361514 11.70587761 0 16 C-0.33 15.34 -0.66 14.68 -1 14 C-1.66 13.67 -2.32 13.34 -3 13 C-2.69964844 12.48050781 -2.39929688 11.96101563 -2.08984375 11.42578125 C0.41677689 6.98026617 0.41677689 6.98026617 0.75 2 C0.5025 1.34 0.255 0.68 0 0 Z " fill="#D9E8E7" transform="translate(119,15)"/>
<path d="M0 0 C0 1.98 0 3.96 0 6 C-1.98 6.33 -3.96 6.66 -6 7 C-6.33 5.35 -6.66 3.7 -7 2 C-4.35261084 0.5393715 -3.10551666 0 0 0 Z " fill="#231B24" transform="translate(46,25)"/>
<path d="M0 0 C1.67542976 0.28604898 3.34385343 0.61781233 5 1 C5.33 2.32 5.66 3.64 6 5 C3.03 5 0.06 5 -3 5 C-1 1 -1 1 0 0 Z " fill="#17151F" transform="translate(94,17)"/>
<path d="M0 0 C1.21236328 0.01353516 1.21236328 0.01353516 2.44921875 0.02734375 C3.37154297 0.04474609 3.37154297 0.04474609 4.3125 0.0625 C1.09697861 2.20618092 -2.1285057 3.57419329 -5.6875 5.0625 C-6.6775 5.5575 -6.6775 5.5575 -7.6875 6.0625 C-7.6875 4.4125 -7.6875 2.7625 -7.6875 1.0625 C-4.80538698 0.10179566 -2.98899956 -0.04331883 0 0 Z " fill="#DEE4E5" transform="translate(42.6875,14.9375)"/>
<path d="M0 0 C2.31 0 4.62 0 7 0 C4.525 4.455 4.525 4.455 2 9 C1.67 9 1.34 9 1 9 C1.020625 7.88625 1.04125 6.7725 1.0625 5.625 C1.26380718 2.16784079 1.26380718 2.16784079 0 0 Z " fill="#EBE6D2" transform="translate(81,15)"/>
<path d="M0 0 C0.33 0 0.66 0 1 0 C1.125 5.75 1.125 5.75 0 8 C-1.65 8 -3.3 8 -5 8 C-4.19185349 6.66402348 -3.37836819 5.331275 -2.5625 4 C-2.11003906 3.2575 -1.65757813 2.515 -1.19140625 1.75 C-0.79824219 1.1725 -0.40507813 0.595 0 0 Z " fill="#DAEBEF" transform="translate(114,35)"/>
<path d="M0 0 C1.98 0.99 1.98 0.99 4 2 C4 3.65 4 5.3 4 7 C3.01 7 2.02 7 1 7 C0.67 4.69 0.34 2.38 0 0 Z " fill="#F7FCF9" transform="translate(99,16)"/>
<path d="M0 0 C-2 3 -2 3 -5 3.8125 C-5.99 3.874375 -6.98 3.93625 -8 4 C-8.66 3.34 -9.32 2.68 -10 2 C-6.3558226 -0.4294516 -4.28758728 -0.16179575 0 0 Z " fill="#D9DCDC" transform="translate(100,15)"/>
<path d="M0 0 C0.99 0.33 1.98 0.66 3 1 C2.01 3.64 1.02 6.28 0 9 C-0.33 8.34 -0.66 7.68 -1 7 C-1.66 6.67 -2.32 6.34 -3 6 C-2.01 4.02 -1.02 2.04 0 0 Z " fill="#D0DDD5" transform="translate(119,22)"/>
<path d="M0 0 C-1.15173355 2.46800047 -2.04783565 4.04783565 -4 6 C-4.99 6 -5.98 6 -7 6 C-7 5.34 -7 4.68 -7 4 C-2.52941176 0 -2.52941176 0 0 0 Z " fill="#DBDCD4" transform="translate(104,29)"/>
</svg>
