<?xml version="1.0" encoding="UTF-8"?>
<svg id="Layer_1" xmlns="http://www.w3.org/2000/svg" version="1.1" viewBox="0 0 1200 259">
  <!-- Generator: Adobe Illustrator 29.2.1, SVG Export Plug-In . SVG Version: 2.1.0 Build 116)  -->
  <defs>
    <style>
      .st0 {
        fill: #0a0a0a;
      }
    </style>
  </defs>
  <path class="st0" d="M90.05,246.1h-38.39V48.06c0-23.68,3.23-36.23,20.45-43.41v-.72H0v.72c17.22,7.18,20.45,19.73,20.45,43.41v162.88c0,23.68-3.23,36.23-20.45,43.41v.72h159.65l9.69-71.03h-.72c-20.09,43.05-38.39,62.07-78.57,62.07Z"/>
  <path class="st0" d="M271.21,246.45h-40.9v-115.16h27.98c29.06,0,38.03,1.44,50.23,34.44h.72v-82.51h-.72c-12.2,33.36-21.17,39.82-50.23,39.82h-27.98V12.55h35.88c40.18,0,59.55,16.14,77.49,50.23h.72l-10.4-61.35c-3.95,2.15-10.76,2.51-16.86,2.51h-138.48v.72c17.22,7.18,20.45,19.73,20.45,43.41v162.88c0,23.68-3.23,36.23-20.45,43.41v.72h164.31l9.69-65.29h-.72c-18.3,39.1-40.54,56.68-80.72,56.68Z"/>
  <path class="st0" d="M500.81,137.75c16.5,7.53,20.09,19.73,20.09,43.41v10.05c0,34.8-21.88,54.53-50.58,54.53-42.69,0-68.88-44.85-68.88-112.65,0-73.9,25.83-124.49,70.68-124.49,32.29,0,58.12,33.01,69.96,73.9h.72l-2.87-82.15c-3.95,5.38-10.76,11.48-20.45,11.48-11.12,0-26.19-11.48-48.79-11.48-57.4,0-105.12,54.53-105.12,132.38,0,72.47,41.62,125.92,98.3,125.92,31.21,0,53.45-19.73,59.91-42.33l26.91,42.33h.72v-77.49c0-23.68,2.51-36.23,16.5-43.41v-.72h-67.09v.72Z"/>
  <path class="st0" d="M681.97.35c-55.61,0-102.25,53.81-102.25,129.15s46.64,129.15,102.25,129.15,102.24-53.81,102.24-129.15S737.22.35,681.97.35ZM681.97,250.4c-44.84,0-65.65-52.38-65.65-120.9s20.81-120.9,65.65-120.9,65.65,52.38,65.65,120.9-20.81,120.9-65.65,120.9Z"/>
  <path class="st0" d="M1172.73,214.88L1091.3.35h-1.08l-76.42,205.93c-7.34,19.97-14.45,34.4-24.85,43.11-14.03-7.29-21.47-17.56-27.52-39.17l-7.89-30.14c-7.18-26.19-25.83-43.41-60.99-46.28,38.39-1.44,79.29-19.01,79.29-63.86,0-48.79-41.26-66.01-90.41-66.01h-87.18v.72c17.22,7.18,20.45,19.73,20.45,43.41v162.88c0,23.68-3.23,36.23-20.45,43.41v.72h72.11v-.72c-17.22-7.18-20.45-19.73-20.45-43.41v-73.9h26.19c31.57,0,42.33,20.81,49.15,47.36l8.61,31.93c4.66,16.86,11.12,31.93,17.94,38.75h90.04v-.72c-11.48-5.02-17.58-14.71-17.58-26.91,0-7.53,1.8-15.07,4.66-22.24l12.92-34.8h85.38l16.5,43.41c3.23,8.61,5.02,15.79,5.02,21.52,0,8.61-5.02,14.71-15.79,19.01v.72h71.03v-.72c-14.35-7.53-18.3-15.79-27.27-39.46ZM845.92,128.07V12.9h30.14c39.1,0,61.35,18.3,61.35,57.76,0,43.41-25.47,57.4-61.35,57.4h-30.14ZM1041.07,161.43l38.75-105.12,39.82,105.12h-78.57Z"/>
</svg>