<svg version="1.1" id="Layer_1" xmlns:x="ns_extend;" xmlns:i="ns_ai;" xmlns:graph="ns_graphs;" xmlns="http://www.w3.org/2000/svg" xmlns:xlink="http://www.w3.org/1999/xlink" x="0px" y="0px" viewBox="0 0 483.7 108" style="enable-background:new 0 0 483.7 108;" xml:space="preserve">
 <style type="text/css">
  .st0{fill:#E8171F;}
 </style>
 <metadata>
  <sfw xmlns="ns_sfw;">
   <slices>
   </slices>
   <sliceSourceBounds bottomLeftOrigin="true" height="108" width="483.7" x="-321.5" y="4.5">
   </sliceSourceBounds>
  </sfw>
 </metadata>
 <g>
  <g>
   <polygon points="151.1,27.7 144.5,27.7 144.5,79.4 177.3,79.4 177.3,73 151.1,73 		">
   </polygon>
   <polygon points="428.3,46.3 423.9,42.5 411.3,56.9 398.8,42.6 398.7,42.5 394.4,46.3 407.5,61.4 394.5,76.3 394.4,76.5 
			398.7,80.3 411.3,65.8 423.8,80.2 423.9,80.3 428.3,76.5 415.2,61.4 428.2,46.4 		">
   </polygon>
   <polygon points="342.3,64.9 307,27.7 305.7,27.7 305.7,79.4 312.3,79.4 312.3,42.3 347.6,79.4 348.9,79.4 348.9,27.7 342.3,27.7 
					">
   </polygon>
   <rect x="434.9" y="43.3" width="6.2" height="36.2">
   </rect>
   <rect x="434.6" y="27.7" width="6.8" height="5.8">
   </rect>
   <path d="M374.8,42.7c-10.1,0-18.1,8.2-18.1,18.7c0,10.4,7.9,18.7,18.6,18.7c6.3,0,11.4-2.6,14.5-5.9l0,0l-4.4-3.8
			c-2.3,2.1-5.8,3.9-10.1,3.9c-6.6,0-11.6-4.8-12.1-11.3h29.4C392.3,50,384.9,42.7,374.8,42.7z M363.3,57.5c1.3-5.5,5.8-9,11.1-9
			c5.5-0.1,10.1,3.1,11,9H363.3z">
   </path>
   <path d="M464,58.8l-3.1-1.1c-4.4-1.5-5.5-3.3-5.5-5.5c0-2.5,2.5-4,5.3-4c2.6,0,4.5,1.1,6.1,2.8l4.2-3.7c-2.6-3.2-6.2-4.7-10.3-4.7
			c-6.8,0-11.7,4.2-11.7,9.6c0,4.3,2.3,8.3,8.9,10.7l2.9,1.1c4.4,1.5,6.4,3,6.4,5.8c0,2.7-3,4.6-6.7,4.6c-4,0-6.5-1.8-8.9-4.6
			l-4.4,3.9c3.2,3.9,7.9,6.3,13.2,6.3c8.2,0,13.3-4.6,13.3-10.3C473.8,64.3,470.4,61.1,464,58.8z">
   </path>
   <polygon points="251.6,46.3 247.2,42.5 234.6,56.9 222.1,42.6 222,42.5 217.6,46.3 230.8,61.4 217.7,76.3 217.6,76.5 222,80.3 
			234.6,65.8 247.1,80.2 247.2,80.3 251.6,76.5 238.5,61.4 251.5,46.4 		">
   </polygon>
   <rect x="258.2" y="43.3" width="6.2" height="36.2">
   </rect>
   <rect x="257.9" y="27.7" width="6.8" height="5.8">
   </rect>
   <path d="M198,42.7c-10.1,0-18.1,8.2-18.1,18.7c0,10.4,7.9,18.7,18.6,18.7c6.3,0,11.4-2.6,14.5-5.9l0,0l-4.4-3.8
			c-2.3,2.1-5.8,3.9-10.1,3.9c-6.6,0-11.6-4.8-12.1-11.3h29.4C215.5,50,208.2,42.7,198,42.7z M186.6,57.5c1.3-5.5,5.8-9,11.1-9
			c5.5-0.1,10.1,3.1,11,9H186.6z">
   </path>
   <path d="M287.3,58.8l-3.1-1.1c-4.4-1.5-5.5-3.3-5.5-5.5c0-2.5,2.5-4,5.3-4c2.6,0,4.5,1.1,6.1,2.8l4.2-3.7
			c-2.6-3.2-6.2-4.7-10.3-4.7c-6.8,0-11.7,4.2-11.7,9.6c0,4.3,2.3,8.3,8.9,10.7l2.9,1.1c4.4,1.5,6.4,3,6.4,5.8c0,2.7-3,4.6-6.7,4.6
			c-4,0-6.5-1.8-8.9-4.6l-4.4,3.9c3.2,3.9,7.9,6.3,13.2,6.3c8.2,0,13.3-4.6,13.3-10.3C297,64.3,293.6,61.1,287.3,58.8z">
   </path>
   <path d="M478.9,33.5c-2.7,0-4.8,2.2-4.8,4.8c0,2.7,2.1,4.8,4.8,4.8c2.7,0,4.8-2.1,4.8-4.8C483.7,35.7,481.6,33.5,478.9,33.5z
			 M478.9,42.4c-2.2,0-4-1.8-4-4.1c0-2.2,1.8-4.1,4-4.1c2.2,0,4,1.8,4,4.1C482.9,40.6,481.1,42.4,478.9,42.4z">
   </path>
   <path d="M480.9,37.1c0-1-0.7-1.6-1.9-1.6h-1.9V41h0.9v-2.3h0.9l1.2,2.3h1l-1.3-2.4C480.6,38.4,480.9,37.9,480.9,37.1z M478.9,38
			h-1v-1.6h1c0.8,0,1.1,0.2,1.1,0.8C480,37.7,479.7,38,478.9,38z">
   </path>
   <path d="M113.3,18.1c-2.7,0-4.8,2.2-4.8,4.8c0,2.7,2.1,4.8,4.8,4.8c2.7,0,4.8-2.1,4.8-4.8C118.1,20.2,116,18.1,113.3,18.1z
			 M113.3,26.9c-2.2,0-4-1.8-4-4.1c0-2.2,1.8-4.1,4-4.1c2.2,0,4,1.8,4,4.1C117.3,25.2,115.5,26.9,113.3,26.9z">
   </path>
   <path d="M115.3,21.6c0-1-0.7-1.6-1.9-1.6h-1.9v5.4h0.9v-2.3h0.9l1.2,2.3h1l-1.3-2.4C114.9,22.9,115.3,22.4,115.3,21.6z
			 M113.3,22.5h-1v-1.6h1c0.8,0,1.1,0.2,1.1,0.8C114.4,22.2,114.1,22.5,113.3,22.5z">
   </path>
  </g>
  <g>
   <path class="st0" d="M20.3,48.3c5.7-11.4,15.2-20.6,26.3-26c1.3-0.6,2.6-1.2,4-1.7c0.1,0,0.1-0.2-0.1-0.2
			C10.9,27.1-6.1,76.3,20.3,97.4c0.1,0.1,0.2,0,0.2-0.1C16.7,92,7.6,73.8,20.3,48.3z">
   </path>
   <path class="st0" d="M29.4,81.1c-1-6.5-1-13.1,0-19.5c2.1-12.8,8.2-24.5,17.1-33.1c1.6-1.6,3.4-3.1,5.2-4.5c0.1-0.1,0-0.2-0.1-0.2
			C30.9,33.1,19,56.2,20.5,77.2c0.8,9.6,4.6,27.3,23,30.8c0.1,0,0.2-0.1,0.1-0.2C36,102.6,30.7,90.4,29.4,81.1z">
   </path>
   <path class="st0" d="M3.8,33.7c9.2-13.1,28.2-21.9,46.8-19.6c0.1,0,0.2-0.2,0-0.2c-14.2-4.1-28.9-1.4-37.9,5.9
			C8.9,23,5.9,28.4,3.6,33.6C3.6,33.8,3.7,33.9,3.8,33.7z">
   </path>
   <path class="st0" d="M108.3,50.1C105.8,20.2,78.9-2.5,49,0.2C38.6,1.2,27.5,5.5,19.2,12.5c-0.1,0.1,0,0.2,0.1,0.2
			c7.1-4.1,16.8-4,22.6-3.3c3,0.4,6,1,8.9,1.9c2.9,0.9,5.7,2.1,8.4,3.5c1.4,0.7,2.7,1.5,4.1,2.4c4.9-2.2,10-3.6,15.2-4.3l0,0
			c0.4-0.1,0.7,0.1,0.9,0.5c0.2,0.5-0.1,0.9-0.6,1c-2.8,0.6-5.5,1.4-8.2,2.4c-0.1,0-0.1,0.2,0,0.2c3.8,0,7.6,0.4,11.2,1.2l0,0
			c0.3,0.1,0.6,0.3,0.6,0.7c0.1,0.5-0.4,0.9-0.9,0.9c-3.2-0.5-6.5-0.7-9.7-0.6c-0.1,0-0.2,0.2,0,0.2c1.5,0.5,3,1,4.5,1.6
			c2.8,1.1,5.4,2.5,8,4l0,0c0.2,0.1,0.4,0.4,0.4,0.7c-0.1,0.6-0.7,0.9-1.1,0.6c-2.5-1.4-5.1-2.6-7.9-3.5c-1.1-0.4-2.3-0.8-3.5-1.1
			c-0.1,0-0.2,0.1-0.1,0.2c1.9,1.2,3.7,2.5,5.4,4c2.3,1.9,4.4,4,6.3,6.3l0,0c0.2,0.2,0.2,0.5,0.1,0.8c-0.3,0.6-0.9,0.6-1.3,0.2
			c-1.9-2.1-4.1-4.1-6.3-5.9c-1.3-1-2.7-2-4.2-2.9c-0.1-0.1-0.2,0.1-0.1,0.2c0.4,0.4,0.8,0.9,1.2,1.3c2,2.3,3.8,4.7,5.3,7.2
			c1.5,2.6,2.8,5.3,3.9,8l0,0c0.1,0.3,0.1,0.6-0.1,0.8c-0.4,0.4-1.1,0.3-1.3-0.2c-1.1-2.7-2.4-5.2-3.9-7.7c-1.5-2.4-3.3-4.7-5.3-6.8
			c-2-2.1-4.1-4-6.4-5.8c-0.7-0.5-1.6-1.2-2-1.4c-45,25.1-29.4,90.9,3.1,87.5C92.4,101.4,110.5,77.2,108.3,50.1z">
   </path>
   <path class="st0" d="M10.6,41.8C21,25.4,39.1,18.3,50.2,17.3c0.1,0,0.1-0.2,0-0.2c-4.6-0.4-8.8-0.1-14.4,1.1
			c-5.6,1.3-11,3.5-15.8,6.6c-4.8,3.1-9.1,7.1-12.6,11.7c0,0-0.1,0.1-0.1,0.1C0.6,45.5-1.5,57,1.1,67.8c0.3,1.2,1.1,3.8,1.7,5.4
			c0,0.1,0.2,0.1,0.2,0C1.7,60.4,5.4,50.2,10.6,41.8z">
   </path>
  </g>
 </g>
</svg>