<svg version="1.1" id="Layer_1" xmlns="http://www.w3.org/2000/svg" xmlns:xlink="http://www.w3.org/1999/xlink" x="0px" y="0px" viewBox="0 0 284.9 72" style="enable-background:new 0 0 284.9 72;" xml:space="preserve">
 <style type="text/css">
  .st0{fill:none;}
	.st1{fill:#0A0A0A;}
	.st2{fill:#9125FB;}
	.st3{fill:#450D7C;}
 </style>
 <line class="st0" x1="449.3" y1="-360.3" x2="-163.8" y2="-360.3">
 </line>
 <line class="st0" x1="448.2" y1="-359.3" x2="-163.8" y2="-359.3">
 </line>
 <line class="st0" x1="449.2" y1="-360.3" x2="-164.8" y2="-360.3">
 </line>
 <line class="st0" x1="448.2" y1="-359.3" x2="-163.8" y2="-359.3">
 </line>
 <line class="st0" x1="448.2" y1="-359.3" x2="-163.8" y2="-359.3">
 </line>
 <line class="st0" x1="448.2" y1="-359.3" x2="-163.8" y2="-359.3">
 </line>
 <g>
  <path class="st1" d="M82.8,50.5V21.8h5.5l8.1,18.6l8.1-18.6h6.2v28.7h-5.5V32.9l-8.1,17.6h-1l-7.8-17.6v17.6H82.8z M131.7,48.2
		c-3.9,3.9-10.4,3.9-14.7,0c-2-2.3-2.9-5.2-2.9-8.5c-0.3-2.9,1-6.2,2.9-8.5c3.9-3.9,10.1-4.2,14-0.3l0.3,0.3c2,2.3,3.3,5.2,2.9,8.5
		C134.6,42.7,133.7,45.6,131.7,48.2 M120.6,44.6c1,1,2.3,1.6,3.6,1.6c1.3,0,2.6-0.7,3.6-1.6c1-1.3,1.3-3.3,1.3-4.9
		c0-1.6-0.3-3.6-1.3-4.9c-1.6-2-4.6-2.3-6.5-0.7c-0.3,0.3-0.7,0.3-0.7,0.7c-1,1.3-1.3,3.3-1.3,4.9C119.3,41.4,119.6,43,120.6,44.6
		 M143.1,50.5L134.3,29h5.5l5.5,14l5.5-14h5.5L148,50.5H143.1z M171.8,43l3.6,3.3c-2,2.9-5.2,4.9-9.1,4.9c-2.9,0-5.5-1-7.5-3.3
		c-2-2.3-2.9-5.2-2.9-8.5c0-2.9,1-5.9,2.9-8.5c2-2,4.6-3.3,7.2-3.3c2.6,0,5.2,1,7.2,3.3c2,2.3,2.9,5.2,2.9,8.5V41h-14.7
		c0,1.3,0.3,2.9,1.3,3.9c1,1,2.3,1.3,3.3,1.3s2.3-0.3,2.9-1C170.2,44.6,171.1,44,171.8,43 M161.7,37.1h9.5c0-1.3-0.7-2.3-1.3-3.3
		c-1-1-2.3-1.3-3.3-1.3c-1.3,0-2.3,0.3-3.3,1.3C162.3,34.8,161.7,36.1,161.7,37.1 M182.2,50.5L177.3,29h5.2l2.9,14.3l4.9-14.3h4.9
		l4.6,14.3l3.3-14.3h5.2l-5.2,21.5h-5.2L193,34.8l-5.2,15.6H182.2z M226.2,48.2c-3.9,3.9-10.4,3.9-14.7,0c-2-2.3-2.9-5.2-2.9-8.5
		c-0.3-2.9,1-6.2,2.9-8.5c3.9-3.9,10.1-4.2,14-0.3l0.3,0.3c2,2.3,3.3,5.2,2.9,8.5C229.2,42.7,228.2,45.6,226.2,48.2 M215.2,44.6
		c1.6,2,4.6,2.3,6.5,0.7c0.3-0.3,0.7-0.3,0.7-0.7c1-1.3,1.3-3.3,1.3-4.9c0-1.6-0.3-3.6-1.3-4.9c-1.6-2-4.6-2.3-6.5-0.7
		c-0.3,0.3-0.7,0.3-0.7,0.7c-1,1.3-1.3,3.3-1.3,4.9C213.9,41.4,214.5,43,215.2,44.6 M232.4,50.5V28.6h4.9v2.3c0.3-0.7,1-1.6,2-2
		c1.3-1,3.3-1,4.6-0.3l-0.7,5.2c-0.7-0.3-1-0.3-1.6-0.3c-2.6,0-3.6,1.6-3.6,4.9v11.7h-5.5V50.5z M266.3,43.3l4.9-1.3
		c0.3,2.9,2,4.6,4.9,4.6c1,0,2.3-0.3,3.3-0.7c0.7-0.3,1.3-1,1.3-1.6c0-0.7-0.3-1.3-1-1.3c-1.3-0.7-2.6-1-3.9-1.3l-1.3-0.3
		c-2-0.3-3.9-1.3-5.5-2.6c-1.3-1-2-2.3-1.6-3.9c0-2,0.7-3.6,2.3-4.6c1.6-1.3,3.9-2,5.9-2c4.9,0,7.8,2.3,9.1,6.5l-4.6,1.3
		c-0.3-1-1-1.6-1.6-2.3c-1.6-1-3.9-1.3-5.5-0.3c-0.7,0.3-1,0.7-1,1.3c0,0.7,0.3,1.3,1,1.3c1.6,0.7,3.6,1.3,5.5,1.6
		c2,0.3,3.6,1.3,5.2,2.6c1,1,1.3,2.6,1.3,3.9c0,2-1,3.6-2.3,4.6c-2,1.6-4.2,2.3-6.5,2c-2.6,0.3-4.9-0.7-6.8-2.3
		C267.6,47.2,266.7,45.3,266.3,43.3 M257.5,39.1l8.8,11.4h-6.5l-7.5-10.4v10.4h-5.2v-30h5.2v17.3l7.5-9.1h6.5L257.5,39.1z">
  </path>
  <g>
   <path class="st2" d="M0,0l33,33H0V0z">
   </path>
   <path class="st2" d="M33,0l33,33H33V0z">
   </path>
   <path class="st3" d="M0,72l33-33H0V72z">
   </path>
   <path class="st3" d="M33,72l33-33H33V72z">
   </path>
  </g>
 </g>
</svg>