<?xml version="1.0" encoding="UTF-8"?>
<svg version="1.1" xmlns="http://www.w3.org/2000/svg" width="406" height="69">
<path d="M0 0 C2.875 0.875 2.875 0.875 4.875 2.875 C5.13569641 5.33518982 5.13569641 5.33518982 5.1496582 8.47045898 C5.16395622 10.22754433 5.16395622 10.22754433 5.17854309 12.02012634 C5.17763168 13.29094559 5.17672028 14.56176483 5.17578125 15.87109375 C5.18006638 17.17071548 5.1843515 18.47033722 5.18876648 19.80934143 C5.19623352 22.56247023 5.19593413 25.3154708 5.19067383 28.06860352 C5.1848803 31.59737162 5.20180424 35.12561465 5.2250185 38.65429592 C5.24329154 42.01825082 5.23957065 45.38208943 5.23828125 48.74609375 C5.247491 50.01488876 5.25670074 51.28368378 5.26618958 52.59092712 C5.25996078 53.76546951 5.25373199 54.9400119 5.24731445 56.15014648 C5.24794388 57.1855809 5.2485733 58.22101532 5.2492218 59.28782654 C4.875 61.875 4.875 61.875 3.53923035 63.70936584 C0.94591748 65.52573342 -1.05395368 65.25888079 -4.125 64.875 C-6.12984471 63.34636822 -7.01629515 62.48179907 -7.46557617 59.97387695 C-7.44986572 59.27738037 -7.43415527 58.58088379 -7.41796875 57.86328125 C-7.40830078 57.10595703 -7.39863281 56.34863281 -7.38867188 55.56835938 C-7.36353516 54.78267578 -7.33839844 53.99699219 -7.3125 53.1875 C-7.29896484 52.39021484 -7.28542969 51.59292969 -7.27148438 50.77148438 C-7.23617089 48.80570033 -7.18236447 46.84026418 -7.125 44.875 C-8.115 45.37 -8.115 45.37 -9.125 45.875 C-9.55603098 48.39448641 -9.55603098 48.39448641 -9.6875 51.3125 C-10.0308296 56.68665919 -10.0308296 56.68665919 -11.125 58.875 C-13.96902731 59.87425284 -15.47377137 60.15156533 -18.27734375 58.9609375 C-21.25120345 55.60355678 -20.54854503 52.00276385 -20.375 47.6875 C-20.35695313 46.84251953 -20.33890625 45.99753906 -20.3203125 45.12695312 C-20.27320586 43.04248427 -20.20146233 40.95859856 -20.125 38.875 C-20.785 38.875 -21.445 38.875 -22.125 38.875 C-22.104375 40.174375 -22.08375 41.47375 -22.0625 42.8125 C-22.04100546 44.16665633 -22.05351801 45.52256083 -22.125 46.875 C-23.125 47.875 -23.125 47.875 -26.125 48 C-29.125 47.875 -29.125 47.875 -30.125 46.875 C-30.21275605 44.72941173 -30.23195219 42.58095579 -30.22265625 40.43359375 C-30.21943359 39.12841797 -30.21621094 37.82324219 -30.21289062 36.47851562 C-30.20453401 35.0898431 -30.19606905 33.70117123 -30.1875 32.3125 C-30.18248666 30.91992344 -30.17792347 29.52734519 -30.17382812 28.13476562 C-30.16199434 24.7148013 -30.1455088 21.29492156 -30.125 17.875 C-27.25 17.25 -27.25 17.25 -24.125 16.875 C-22.125 18.875 -22.125 18.875 -22 22 C-22.04125 22.94875 -22.0825 23.8975 -22.125 24.875 C-21.465 24.875 -20.805 24.875 -20.125 24.875 C-20.14820313 23.75480469 -20.17140625 22.63460938 -20.1953125 21.48046875 C-20.21407237 20.00781916 -20.23227234 18.53516237 -20.25 17.0625 C-20.26675781 16.32451172 -20.28351562 15.58652344 -20.30078125 14.82617188 C-20.33574628 10.96253574 -20.31897555 9.16596332 -18.125 5.875 C-15.125 5.5625 -15.125 5.5625 -12.125 5.875 C-9.64442372 8.35557628 -9.83480995 9.23692464 -9.7109375 12.6640625 C-9.67226563 13.60507813 -9.63359375 14.54609375 -9.59375 15.515625 C-9.5628125 16.50046875 -9.531875 17.4853125 -9.5 18.5 C-9.46132813 19.49257813 -9.42265625 20.48515625 -9.3828125 21.5078125 C-9.2883686 23.96335385 -9.20280125 26.4188841 -9.125 28.875 C-8.795 28.875 -8.465 28.875 -8.125 28.875 C-8.1156543 28.13862305 -8.10630859 27.40224609 -8.09667969 26.64355469 C-8.04295845 23.30335782 -7.95931378 19.96455881 -7.875 16.625 C-7.86082031 15.46613281 -7.84664062 14.30726562 -7.83203125 13.11328125 C-7.79980469 11.99824219 -7.76757812 10.88320312 -7.734375 9.734375 C-7.7029541 8.19475098 -7.7029541 8.19475098 -7.67089844 6.62402344 C-6.75992686 2.03657267 -4.72049954 -0.18881998 0 0 Z " fill="#000000" transform="translate(31.125,2.125)"/>
<path d="M0 0 C4.62 0 9.24 0 14 0 C18.29 10.23 22.58 20.46 27 31 C27.33 20.77 27.66 10.54 28 0 C32.29 0 36.58 0 41 0 C41 11.55 41 23.1 41 35 C32.09 35 23.18 35 14 35 C13.505 32.525 13.505 32.525 13 30 C11.04081032 30.05991406 9.08248471 30.14867138 7.125 30.25 C6.03445313 30.29640625 4.94390625 30.3428125 3.8203125 30.390625 C2.88960938 30.59171875 1.95890625 30.7928125 1 31 C0.34 32.32 -0.32 33.64 -1 35 C-5.29 35 -9.58 35 -14 35 C-9.69353097 23.17352255 -4.95458092 11.56907221 0 0 Z M6 14 C5.34 16.31 4.68 18.62 4 21 C5.65 21 7.3 21 9 21 C8.65772428 18.02934491 8.65772428 18.02934491 8 15 C7.34 14.67 6.68 14.34 6 14 Z " fill="#000000" transform="translate(361,19)"/>
<path d="M0 0 C6.0328125 -0.0928125 6.0328125 -0.0928125 12.1875 -0.1875 C14.07698364 -0.22846802 14.07698364 -0.22846802 16.00463867 -0.27026367 C17.50861206 -0.28150269 17.50861206 -0.28150269 19.04296875 -0.29296875 C20.06414795 -0.3086792 21.08532715 -0.32438965 22.13745117 -0.34057617 C25.48707631 0.05795066 27.30316765 1.00170773 30 3 C32.32579101 6.48868651 32.41865457 7.89718519 32 12 C30.5 14.375 30.5 14.375 29 16 C29.66 16.680625 30.32 17.36125 31 18.0625 C33.50978123 21.74874118 33.62608836 23.61738151 33 28 C30.57211494 32.0464751 28.42299254 33.57327955 24 35 C21.22924805 35.22705078 21.22924805 35.22705078 18.26171875 35.1953125 C16.81865356 35.18781982 16.81865356 35.18781982 15.34643555 35.18017578 C14.13898682 35.16196777 12.93153809 35.14375977 11.6875 35.125 C7.830625 35.08375 3.97375 35.0425 0 35 C0 23.45 0 11.9 0 0 Z M12 9 C12 10.32 12 11.64 12 13 C13.98 13 15.96 13 18 13 C18.33 11.68 18.66 10.36 19 9 C16.69 9 14.38 9 12 9 Z M12 21 C12 22.65 12 24.3 12 26 C16.14093698 26.20970559 16.14093698 26.20970559 20 25 C20 24.01 20 23.02 20 22 C17.29120665 20.64560332 14.99066732 20.93498549 12 21 Z " fill="#000000" transform="translate(122,19)"/>
<path d="M0 0 C3.81137295 2.53352892 6.30661645 5.97953141 7.62109375 10.35546875 C8.76788864 16.12350641 8.06232115 20.401059 5.29296875 25.4765625 C2.65214736 29.32876985 -0.51805377 31.85107001 -4.984375 33.33984375 C-12.55582193 33.9716608 -19.81458562 34.30910761 -25.984375 29.33984375 C-30.80819015 23.27915292 -31.81191437 17.90263413 -30.984375 10.33984375 C-29.30262272 5.49566599 -26.27280415 2.09669106 -21.984375 -0.66015625 C-14.55719509 -4.03614712 -7.23542358 -3.55446508 0 0 Z M-17.984375 12.33984375 C-18.734375 15.83984375 -18.734375 15.83984375 -17.984375 19.33984375 C-15.93556216 21.97910733 -15.93556216 21.97910733 -12.984375 23.33984375 C-9.77533943 23.33984375 -8.51526079 22.83411672 -6.171875 20.65234375 C-4.60670555 17.6043822 -4.49070813 15.72498802 -4.984375 12.33984375 C-6.96760493 9.54863125 -8.11423621 8.51387151 -11.484375 7.83984375 C-14.88961875 8.5208925 -16.00985483 9.48775905 -17.984375 12.33984375 Z " fill="#000000" transform="translate(111.984375,20.66015625)"/>
<path d="M0 0 C5.754375 -0.12375 5.754375 -0.12375 11.625 -0.25 C12.82334473 -0.28641602 14.02168945 -0.32283203 15.25634766 -0.36035156 C21.45542453 -0.42489275 25.40724129 -0.36388369 30 4 C32.74203453 7.99056898 32.56765346 12.32520676 32 17 C30.5625 19.9375 30.5625 19.9375 29 22 C28.67 22.66 28.34 23.32 28 24 C28.99834814 26.18439223 28.99834814 26.18439223 30.4375 28.5 C33 32.80108992 33 32.80108992 33 35 C28.38 35 23.76 35 19 35 C18.01 32.03 17.02 29.06 16 26 C14.68 26 13.36 26 12 26 C12 28.97 12 31.94 12 35 C8.04 35 4.08 35 0 35 C0 23.45 0 11.9 0 0 Z M12 9 C12 11.31 12 13.62 12 16 C14.31 16 16.62 16 19 16 C19.67958603 13.60280568 19.67958603 13.60280568 20 11 C18.10244856 8.65026182 18.10244856 8.65026182 14.875 8.875 C13.92625 8.91625 12.9775 8.9575 12 9 Z " fill="#000000" transform="translate(224,19)"/>
<path d="M0 0 C10.23 0 20.46 0 31 0 C31 2.97 31 5.94 31 9 C25.06 9 19.12 9 13 9 C13 9.99 13 10.98 13 12 C18.28 12 23.56 12 29 12 C29 15.3 29 18.6 29 22 C23.72 22 18.44 22 13 22 C13 22.99 13 23.98 13 25 C18.94 25 24.88 25 31 25 C31 28.3 31 31.6 31 35 C20.77 35 10.54 35 0 35 C0 23.45 0 11.9 0 0 Z " fill="#000000" transform="translate(296,19)"/>
<path d="M0 0 C9.9 0 19.8 0 30 0 C30 2.97 30 5.94 30 9 C24.06 9 18.12 9 12 9 C12 9.99 12 10.98 12 12 C17.28 12 22.56 12 28 12 C28 15.3 28 18.6 28 22 C22.72 22 17.44 22 12 22 C12 22.99 12 23.98 12 25 C17.94 25 23.88 25 30 25 C30 28.3 30 31.6 30 35 C20.1 35 10.2 35 0 35 C0 23.45 0 11.9 0 0 Z " fill="#000000" transform="translate(190,19)"/>
<path d="M0 0 C0.8671875 1.875 0.8671875 1.875 1 4 C-0.03680745 6.56336313 -1.50908331 8.65067673 -3 11 C-3.60328125 10.7834375 -4.2065625 10.566875 -4.828125 10.34375 C-5.62734375 10.0653125 -6.4265625 9.786875 -7.25 9.5 C-8.03890625 9.2215625 -8.8278125 8.943125 -9.640625 8.65625 C-12.23412738 7.82135139 -12.23412738 7.82135139 -16 8 C-15.10796875 8.30292969 -14.2159375 8.60585938 -13.296875 8.91796875 C-12.12640625 9.33691406 -10.9559375 9.75585938 -9.75 10.1875 C-8.58984375 10.59355469 -7.4296875 10.99960937 -6.234375 11.41796875 C-2.6590036 13.16679172 -1.09689271 14.64598958 1 18 C2.0606347 22.11775824 1.44346929 25.24445973 -0.6875 28.875 C-5.72485883 33.50392433 -11.06240733 33.42121866 -17.62109375 33.32421875 C-22.44191479 32.86164286 -26.89294746 31.62395024 -31 29 C-32 26 -32 26 -31.22265625 23.95703125 C-30.83980469 23.24933594 -30.45695313 22.54164062 -30.0625 21.8125 C-29.68222656 21.09707031 -29.30195313 20.38164063 -28.91015625 19.64453125 C-28.60980469 19.10183594 -28.30945313 18.55914062 -28 18 C-27.34 18.268125 -26.68 18.53625 -26 18.8125 C-23.60748838 19.75953585 -21.2143071 20.70190109 -18.8125 21.625 C-18.13832031 21.88539062 -17.46414062 22.14578125 -16.76953125 22.4140625 C-14.99423299 23.10478036 -14.99423299 23.10478036 -13 23 C-12.67 22.34 -12.34 21.68 -12 21 C-13.21236328 20.76216797 -13.21236328 20.76216797 -14.44921875 20.51953125 C-19.20947767 19.48019848 -23.14448579 18.55937468 -27.25 15.875 C-29.69540228 11.85755339 -29.890397 8.58512848 -29 4 C-27.15603669 0.66668172 -25.76346834 -0.61826583 -22.375 -2.3125 C-15.05671701 -3.80326135 -6.60361079 -4.03136148 0 0 Z " fill="#000000" transform="translate(187,21)"/>
<path d="M0 0 C4.62 0 9.24 0 14 0 C14.84080019 2.41429769 15.67281402 4.83103993 16.5 7.25 C16.73847656 7.93191406 16.97695313 8.61382812 17.22265625 9.31640625 C18.39421287 12.76413003 19 15.31702904 19 19 C19.66 19 20.32 19 21 19 C21.268125 17.72125 21.53625 16.4425 21.8125 15.125 C22.94634627 9.99414169 24.44510972 5.01805499 26 0 C30.29 0 34.58 0 39 0 C38.15089399 4.24553007 37.05924354 7.77520477 35.53125 11.796875 C35.29088013 12.43111389 35.05051025 13.06535278 34.80285645 13.71881104 C34.29705152 15.0507257 33.78932741 16.38191297 33.27978516 17.71240234 C32.4978585 19.7555958 31.72311643 21.80141002 30.94921875 23.84765625 C27.13871443 33.86128557 27.13871443 33.86128557 26 35 C23.81360547 35.07258946 21.62499611 35.08373783 19.4375 35.0625 C17.64119141 35.04896484 17.64119141 35.04896484 15.80859375 35.03515625 C14.88175781 35.02355469 13.95492188 35.01195312 13 35 C11.14648642 30.17699687 9.29512951 25.35317377 7.44580078 20.52856445 C6.81586549 18.88608216 6.18533269 17.2438289 5.55419922 15.60180664 C4.64915746 13.24685104 3.74624052 10.89109054 2.84375 8.53515625 C2.55939087 7.79660904 2.27503174 7.05806183 1.98205566 6.2971344 C0 1.11387171 0 1.11387171 0 0 Z " fill="#000000" transform="translate(256,19)"/>
<path d="M0 0 C1.87171875 -0.00386719 1.87171875 -0.00386719 3.78125 -0.0078125 C5.74578125 0.00378906 5.74578125 0.00378906 7.75 0.015625 C9.0596875 0.00789063 10.369375 0.00015625 11.71875 -0.0078125 C12.9665625 -0.00523438 14.214375 -0.00265625 15.5 0 C16.64984375 0.00225586 17.7996875 0.00451172 18.984375 0.00683594 C21.75 0.265625 21.75 0.265625 23.75 2.265625 C24 4.765625 24 4.765625 23.75 7.265625 C21.75 9.265625 21.75 9.265625 18.87670898 9.50854492 C17.07955444 9.50238159 17.07955444 9.50238159 15.24609375 9.49609375 C13.94865234 9.49416016 12.65121094 9.49222656 11.31445312 9.49023438 C10.63777588 9.48403076 9.96109863 9.47782715 9.26391602 9.47143555 C7.19209529 9.45316552 5.12072103 9.45092595 3.04882812 9.45117188 C-7.10991743 9.40570757 -7.10991743 9.40570757 -8.25 8.265625 C-8.4375 5.328125 -8.4375 5.328125 -8.25 2.265625 C-5.49055395 -0.49382105 -3.85763302 0.00756823 0 0 Z " fill="#000000" transform="translate(46.25,30.734375)"/>
<path d="M0 0 C1.3602832 -0.03673828 1.3602832 -0.03673828 2.74804688 -0.07421875 C9.38251212 -0.10350999 9.38251212 -0.10350999 12.69921875 2.23046875 C14.0625 4.375 14.0625 4.375 13.9375 7.0625 C13.0625 9.375 13.0625 9.375 11.0625 10.375 C7.40100926 10.61514407 3.7309958 10.56018986 0.0625 10.5625 C-0.96101563 10.57474609 -1.98453125 10.58699219 -3.0390625 10.59960938 C-4.50472656 10.60250977 -4.50472656 10.60250977 -6 10.60546875 C-6.89847656 10.60957764 -7.79695313 10.61368652 -8.72265625 10.61791992 C-10.9375 10.375 -10.9375 10.375 -12.9375 8.375 C-13.25 5.375 -13.25 5.375 -12.9375 2.375 C-8.68062556 -0.46291629 -5.00612918 0.00708582 0 0 Z " fill="#000000" transform="translate(50.9375,16.625)"/>
<path d="M0 0 C1.3602832 -0.03673828 1.3602832 -0.03673828 2.74804688 -0.07421875 C9.39507915 -0.10356547 9.39507915 -0.10356547 12.69921875 2.265625 C14.0625 4.375 14.0625 4.375 13.9375 6.5 C13.0625 8.375 13.0625 8.375 11.0625 10.375 C8.84765625 10.63378906 8.84765625 10.63378906 6.125 10.640625 C5.14789063 10.64320312 4.17078125 10.64578125 3.1640625 10.6484375 C2.14054687 10.64070313 1.11703125 10.63296875 0.0625 10.625 C-0.96101563 10.63273437 -1.98453125 10.64046875 -3.0390625 10.6484375 C-4.01617187 10.64585938 -4.99328125 10.64328125 -6 10.640625 C-6.89847656 10.63836914 -7.79695313 10.63611328 -8.72265625 10.63378906 C-10.9375 10.375 -10.9375 10.375 -12.9375 8.375 C-13.25 5.375 -13.25 5.375 -12.9375 2.375 C-8.68062556 -0.46291629 -5.00612918 0.00708582 0 0 Z " fill="#000000" transform="translate(50.9375,43.625)"/>
<path d="M0 0 C1.94140625 0.3828125 1.94140625 0.3828125 4.44140625 2.0078125 C6.38421094 5.08391993 6.46365118 6.80170439 5.94140625 10.3828125 C4.81640625 12.6953125 4.81640625 12.6953125 2.94140625 14.3828125 C-0.74971301 15.58643834 -2.35458326 15.72699541 -5.87109375 14.0078125 C-8.05859375 12.3828125 -8.05859375 12.3828125 -9.05859375 11.3828125 C-9.32216019 7.89055717 -9.39812225 5.21041321 -8.05859375 1.9453125 C-5.45928939 -0.08539403 -3.24528649 -0.1792976 0 0 Z " fill="#000000" transform="translate(341.05859375,30.6171875)"/>
<path d="M0 0 C1.73056641 -0.02513672 1.73056641 -0.02513672 3.49609375 -0.05078125 C6.5625 0.3125 6.5625 0.3125 8.48828125 1.66796875 C9.5625 3.3125 9.5625 3.3125 9.3125 5.9375 C8.5625 8.3125 8.5625 8.3125 7.5625 9.3125 C5.25175832 9.41182392 2.93787058 9.44219618 0.625 9.4375 C-1.27572266 9.44136719 -1.27572266 9.44136719 -3.21484375 9.4453125 C-6.4375 9.3125 -6.4375 9.3125 -8.4375 8.3125 C-8.5625 5.4375 -8.5625 5.4375 -8.4375 2.3125 C-5.65940605 -0.46559395 -3.86994797 0.01294297 0 0 Z " fill="#000000" transform="translate(46.4375,3.6875)"/>
<path d="M0 0 C0.69416016 -0.01224609 1.38832031 -0.02449219 2.10351562 -0.03710938 C3.92470901 -0.04239842 5.7453692 0.06580793 7.5625 0.1875 C8.2225 0.8475 8.8825 1.5075 9.5625 2.1875 C9.1875 5.3125 9.1875 5.3125 8.5625 8.1875 C5.91659986 8.21434679 3.27096904 8.23426357 0.625 8.25 C-0.50711914 8.26256836 -0.50711914 8.26256836 -1.66210938 8.27539062 C-3.58744313 8.28402441 -5.51285581 8.23974333 -7.4375 8.1875 C-8.4375 7.1875 -8.4375 7.1875 -8.5625 4.1875 C-8.32751099 -1.45223619 -4.64174957 0.00428601 0 0 Z " fill="#000000" transform="translate(46.4375,57.8125)"/>
</svg>
