<svg width="138" height="42" viewBox="0 0 138 42" fill="none" xmlns="http://www.w3.org/2000/svg">
<path fill-rule="evenodd" clip-rule="evenodd" d="M20.6537 12.8595C19.3053 13.0268 18.0499 12.65 17.0719 11.9218V11.924C16.8475 11.7567 16.7227 11.49 16.7227 11.2128V4.68912C16.7227 4.40972 16.8497 4.14301 17.0741 3.97579C17.8975 3.36195 18.9179 3 20.0229 3C22.9421 3 25.2706 5.52733 24.9425 8.51186C24.6948 10.7598 22.8997 12.5823 20.6537 12.8595ZM12.1184 16.2865C12.4931 15.9372 12.8233 15.5181 13.088 15.0355C14.1803 13.0458 13.7527 10.5164 12.0655 8.9987C9.84278 7.00054 6.44729 7.40271 4.73685 9.75647C4.5548 10.0062 4.40027 10.2687 4.27114 10.5396C4.08273 10.9333 4.19704 11.4054 4.55056 11.6615L10.9944 16.3415C11.3352 16.5891 11.8115 16.5743 12.1184 16.2843V16.2865ZM31.5726 19.3176C34.306 19.3176 36.5219 17.1019 36.5219 14.3687C36.5219 11.6356 34.306 9.41992 31.5726 9.41992C28.8392 9.41992 26.6233 11.6356 26.6233 14.3687C26.6233 17.1019 28.8392 19.3176 31.5726 19.3176ZM29.3245 23.6017C29.1974 23.0408 29.6229 22.5032 30.2008 22.5032H38.1011C38.679 22.5032 39.1045 23.0387 38.9775 23.6017C38.4779 25.8052 36.507 27.452 34.151 27.452C31.7949 27.452 29.824 25.8052 29.3245 23.6017ZM12.3809 30.6313C12.3809 33.3644 10.1651 35.5801 7.43165 35.5801C4.69824 35.5801 2.48237 33.3644 2.48237 30.6313C2.48237 27.8981 4.69824 25.6825 7.43165 25.6825C10.1651 25.6825 12.3809 27.8981 12.3809 30.6313ZM26.8837 28.7157C26.509 29.0649 26.1788 29.484 25.9142 29.9666C24.8219 31.9563 25.2495 34.4858 26.9366 36.0034C29.1594 38.0016 32.5548 37.5994 34.2653 35.2457C34.4473 34.9959 34.6019 34.7334 34.731 34.4625C34.9194 34.0688 34.8051 33.5968 34.4516 33.3406L28.0078 28.6606C27.6669 28.413 27.1907 28.4278 26.8837 28.7178V28.7157ZM18.3484 32.1405C19.6969 31.9733 20.9522 32.35 21.9302 33.0782V33.0761C22.1546 33.2433 22.2795 33.51 22.2795 33.7873V40.3109C22.2795 40.5903 22.1525 40.857 21.9281 41.0242C21.1046 41.6381 20.0843 42 18.9793 42C16.0601 42 13.7315 39.4727 14.0596 36.4882C14.3073 34.2402 16.1024 32.4178 18.3484 32.1405ZM9.67766 21.3983C9.80467 21.9592 9.37918 22.4968 8.80127 22.4968H0.898938C0.321029 22.4968 -0.104465 21.9613 0.0225478 21.3983C0.522133 19.1948 2.49507 17.548 4.85116 17.548C7.20725 17.548 9.17807 19.1948 9.67766 21.3983Z" fill="black"/>
<path fill-rule="evenodd" clip-rule="evenodd" d="M48 22.2634C48 14.1857 53.7 8.66357 60.6937 8.66357C67.6874 8.66357 73.3874 14.1857 73.3874 22.2634C73.3874 30.341 67.6874 35.8631 60.6937 35.8631C53.7 35.8631 48 30.341 48 22.2634ZM51.9842 22.2634C51.9842 28.2075 55.9512 32.0632 60.6937 32.0632C65.4362 32.0632 69.4032 28.2075 69.4032 22.2634C69.4032 16.3192 65.4362 12.4635 60.6937 12.4635C55.9512 12.4635 51.9842 16.3192 51.9842 22.2634ZM92.8842 18.1378C94.2893 16.7219 96.018 15.9208 98.3292 15.9208L98.3314 15.9165C103.436 15.9165 107.217 20.0228 107.217 25.8898C107.217 31.7569 103.434 35.8631 98.3314 35.8631C95.9366 35.8631 94.1694 35.0042 92.7385 33.494V35.0684C92.7385 35.3062 92.5457 35.5011 92.3058 35.5011H89.5169C89.277 35.5011 89.0842 35.3084 89.0842 35.0684V9.46041C89.0842 9.22264 89.277 9.02772 89.5169 9.02772H92.4515C92.6892 9.02772 92.8842 9.2205 92.8842 9.46041V18.1378ZM92.8863 25.892C92.8863 29.829 95.4225 32.2452 98.1493 32.2452C100.876 32.2452 103.414 29.829 103.414 25.892C103.414 21.9549 100.874 19.5387 98.1493 19.5387C95.4246 19.5387 92.8863 21.9549 92.8863 25.892ZM86.0638 16.2828H79.0958C77.3693 16.2828 75.9706 17.6815 75.9706 19.408V35.0727C75.9706 35.3126 76.1634 35.5054 76.4033 35.5054H79.3614C79.6013 35.5054 79.7941 35.3126 79.7941 35.0727V20.1063H86.0638C86.3037 20.1063 86.4965 19.9114 86.4965 19.6736V16.7155C86.4965 16.4756 86.3037 16.2828 86.0638 16.2828ZM122.438 16.2828H125.569L125.567 16.2807C125.867 16.2807 126.075 16.5784 125.974 16.8611L117.972 39.0998C117.67 39.9908 117.271 40.7384 116.618 41.2547C115.954 41.7773 115.103 42.0001 114.015 42.0001H110.28C110.042 42.0001 109.847 41.8073 109.847 41.5674V38.8127C109.847 38.575 110.04 38.38 110.28 38.38H113.833C114.03 38.38 114.176 38.3136 114.292 38.198C114.414 38.078 114.514 37.8959 114.594 37.6625V37.656L115.046 36.4179L107.626 16.8697C107.519 16.587 107.726 16.2828 108.03 16.2828H111.162C111.342 16.2828 111.503 16.3942 111.567 16.5634L117.066 31.2856L122.027 16.5784C122.087 16.4006 122.251 16.2828 122.438 16.2828Z" fill="black"/>
</svg>
