<svg version="1.1" id="layer" xmlns="http://www.w3.org/2000/svg" xmlns:xlink="http://www.w3.org/1999/xlink" x="0px" y="0px" viewBox="-153 -46 652 652" style="enable-background:new -153 -46 652 652;" xml:space="preserve">
 <style type="text/css">
  .st0{fill:#0069E5;}
	.st1{fill:#00214F;}
 </style>
 <path class="st0" d="M402.5,295.2c-12.9,0-23.3-10.5-23.3-23.4c0-12.9,10.4-23.4,23.3-23.4c12.6,0,22.8,10,23.3,22.5v1.9
	C425.3,285.2,415.1,295.2,402.5,295.2 M425.8,238.6v0.1c-6.6-4.7-14.6-7.5-23.3-7.5c-22.2,0-40.2,18.1-40.2,40.4
	c0,22.3,18,40.4,40.2,40.4c8.7,0,16.7-2.8,23.3-7.5v7.5h16.9v-85.8L425.8,238.6z M357.7,312.1v-24.4l-33.5,24.4H357.7z M468.2,207.8
	l-17,12.3v17.1l16.9-12.4L468.2,207.8z M451.2,247.8l0,64.3h16.9l0.1-76.6L451.2,247.8z">
 </path>
 <path class="st1" d="M86.3,295.2c-12.9,0-23.3-10.5-23.3-23.4c0-13,10.4-23.4,23.3-23.4c12.9,0,23.3,10.5,23.3,23.4
	C109.6,284.7,99.2,295.2,86.3,295.2 M86.3,231.3c-22.2,0-40.2,18.1-40.2,40.4c0,22.3,18,40.4,40.2,40.4c22.2,0,40.2-18.1,40.2-40.4
	C126.5,249.4,108.5,231.3,86.3,231.3 M-2.5,248.3c9.9,0,18.3,6.2,21.7,15h-43.4c0.2-0.6,0.5-1.2,0.8-1.8
	C-19.6,253.6-11.7,248.3-2.5,248.3 M-2.5,231.3c-15.5,0-28.9,8.8-35.6,21.7c-2.9,5.6-4.6,12-4.6,18.7c0,2.9,0.3,5.8,0.9,8.5
	c3.9,18.2,20,31.9,39.3,31.9c14.4,0,27-7.6,34.1-19l-14.6-8.4c-4.2,6.3-11.3,10.5-19.4,10.5c-9.9,0-18.3-6.2-21.7-15c0,0,0,0,0,0
	h43.4c0,0,0,0,0,0h17.5c0.6-2.7,0.9-5.6,0.9-8.5C37.7,249.4,19.7,231.3-2.5,231.3 M-91.3,295.2c-12.9,0-23.3-10.5-23.3-23.4
	c0-13,10.4-23.4,23.3-23.4c12.9,0,23.3,10.5,23.3,23.4C-68,284.7-78.4,295.2-91.3,295.2 M-91.3,231.3c-8.8,0-16.9,2.9-23.5,7.7v0
	l-6.5-4.9c-0.6-0.4-1.3-0.7-2.1-0.7h-8.4l-0.1,108l16.9,0l0-36.9c6.6,4.8,14.8,7.7,23.6,7.7c22.2,0,40.2-18.1,40.2-40.4
	C-51.1,249.4-69.1,231.3-91.3,231.3 M175.3,295.2c-12.9,0-23.3-10.5-23.3-23.4c0-13,10.4-23.4,23.3-23.4c12.9,0,23.3,10.5,23.3,23.4
	C198.6,284.7,188.2,295.2,175.3,295.2 M175.3,231.3c-8.7,0-16.8,2.8-23.4,7.6l-6.4-4.9c-0.6-0.4-1.3-0.7-2.1-0.7h-8.4l-0.1,108
	l16.9,0l0-36.8c6.6,4.8,14.7,7.6,23.4,7.6c22.2,0,40.2-18.1,40.2-40.4C215.5,249.4,197.5,231.3,175.3,231.3 M289.6,248.3
	c9.9,0,18.3,6.2,21.7,15h-43.4c0.2-0.6,0.5-1.2,0.8-1.8C272.4,253.6,280.4,248.3,289.6,248.3 M328.9,280.2c0.6-2.7,0.9-5.6,0.9-8.5
	c0-22.3-18-40.4-40.2-40.4c-15.5,0-28.9,8.8-35.6,21.7c-2.9,5.6-4.6,12-4.6,18.7c0,2.9,0.3,5.8,0.9,8.5c3.9,18.2,20,31.9,39.3,31.9
	c13.7,0,25.8-6.9,33-17.5l-13.6-10c-4.2,6.3-11.3,10.5-19.4,10.5c-9.9,0-18.3-6.2-21.7-15c0,0,0,0,0,0h43.4c0,0,0,0,0,0H328.9z
	 M224,312.1h16.9l0.1-104.3H224L224,312.1z">
 </path>
</svg>