<svg xmlns="http://www.w3.org/2000/svg" viewBox="0 0 176.33 60.5"><path d="M134.49,40A1.74,1.74,0,0,1,138,40a1.74,1.74,0,1,1-3.48,0Z" fill="#f4f4f4"/><path d="M147.27,40A1.75,1.75,0,1,1,149,41.77,1.69,1.69,0,0,1,147.27,40Z" fill="#031021"/><path d="M160.06,40a1.75,1.75,0,0,1,3.49,0,1.75,1.75,0,1,1-3.49,0Z" fill="#031021"/><path d="M172.85,40a1.74,1.74,0,0,1,3.48,0,1.74,1.74,0,1,1-3.48,0Z" fill="#031021"/><path d="M134.49,27.22a1.74,1.74,0,0,1,3.48,0,1.74,1.74,0,1,1-3.48,0Z" fill="#031021"/><path d="M147.27,27.22A1.75,1.75,0,1,1,149,29,1.69,1.69,0,0,1,147.27,27.22Z" fill="#031021"/><path d="M160.06,27.22a1.75,1.75,0,0,1,3.49,0,1.75,1.75,0,1,1-3.49,0Z" fill="#031021"/><path d="M172.85,27.22a1.74,1.74,0,0,1,3.48,0,1.74,1.74,0,1,1-3.48,0Z" fill="#031021"/><path d="M134.49,14.44a1.74,1.74,0,1,1,1.73,1.75A1.69,1.69,0,0,1,134.49,14.44Z" fill="#031021"/><path d="M147.27,14.44A1.75,1.75,0,1,1,149,16.19,1.7,1.7,0,0,1,147.27,14.44Z" fill="#031021"/><path d="M160.06,14.44a1.75,1.75,0,0,1,3.49,0,1.75,1.75,0,1,1-3.49,0Z" fill="#031021"/><path d="M172.85,14.44a1.74,1.74,0,1,1,1.73,1.75A1.69,1.69,0,0,1,172.85,14.44Z" fill="#031021"/><path d="M134.49,1.7a1.74,1.74,0,0,1,3.48,0,1.74,1.74,0,1,1-3.48,0Z" fill="#031021"/><path d="M147.27,1.7a1.75,1.75,0,0,1,3.49,0,1.75,1.75,0,1,1-3.49,0Z" fill="#031021"/><path d="M160.06,1.7a1.75,1.75,0,0,1,3.49,0,1.75,1.75,0,1,1-3.49,0Z" fill="#031021"/><path d="M172.85,1.7a1.74,1.74,0,0,1,3.48,0,1.74,1.74,0,1,1-3.48,0Z" fill="#031021"/><path d="M0,41.84H6.18A5.4,5.4,0,0,1,12,47.47a5.51,5.51,0,0,1-5.78,5.68H2.67v7H0Zm6,8.9a3.11,3.11,0,0,0,3.22-3.27A3,3,0,0,0,6,44.28H2.67v6.46Z" fill="#031021"/><path d="M15.91,46.5h2.56v2.15h.19a4.07,4.07,0,0,1,3.66-2.49h1v2.59H22c-2.36,0-3.48,1.81-3.48,4.4v7H15.91Z" fill="#031021"/><path d="M26.22,53.33a7,7,0,0,1,7.17-7.17,7.17,7.17,0,1,1,0,14.34A7,7,0,0,1,26.22,53.33Zm11.69,0a4.53,4.53,0,1,0-9,0,4.53,4.53,0,1,0,9,0Z" fill="#031021"/><path d="M44.36,53.33a6.92,6.92,0,0,1,7-7.17,6.39,6.39,0,0,1,6.51,5l-2.48.61a3.9,3.9,0,0,0-4-3.17A4.45,4.45,0,0,0,47,53.33a4.44,4.44,0,0,0,4.45,4.74,3.84,3.84,0,0,0,4-3.12l2.51.58a6.4,6.4,0,0,1-6.54,5A6.89,6.89,0,0,1,44.36,53.33Z" fill="#031021"/><path d="M62.51,55.27V46.5H65.1v8.32A3.08,3.08,0,0,0,68.24,58a3.35,3.35,0,0,0,3.4-3.45V46.5h2.59V60.16H71.64V58.38h-.21a4.19,4.19,0,0,1-3.92,2.12A4.9,4.9,0,0,1,62.51,55.27Z" fill="#031021"/><path d="M80.08,46.5h2.56v2.15h.19a4.07,4.07,0,0,1,3.66-2.49h1v2.59H86.15c-2.35,0-3.48,1.81-3.48,4.4v7H80.08Z" fill="#031021"/><path d="M90.15,53.36c0-4.32,3.06-7.2,6.73-7.2,4.16,0,6.59,3,6.59,7V54H92.82A3.92,3.92,0,0,0,97,58.25a3.76,3.76,0,0,0,3.77-2.64l2.43.6A6.15,6.15,0,0,1,97,60.5C92.85,60.5,90.15,57.55,90.15,53.36Zm10.68-1.31a3.72,3.72,0,0,0-4-3.61,4,4,0,0,0-4,3.61Z" fill="#031021"/><path d="M120.06,41.84h3.74l6.54,18.32h-2.8L126.08,56h-8.43l-1.46,4.13h-2.75Zm5.15,11.75L122,44.38h-.21l-3.24,9.21Z" fill="#031021"/><path d="M134.89,48.75h-2.48V46.5h5.07V60.16h-2.59Z" fill="#031021"/></svg>