<svg fill="none" height="100%" viewBox="0 0 106 23" width="100%" xmlns="http://www.w3.org/2000/svg">
<path d="M101.354 22.4849C99.8484 22.4849 98.6525 22.1241 97.7659 21.4024C96.8793 20.6601 96.436 19.3508 96.436 17.4745V9.92798H92.5699V7.14443H94.8586C95.9102 7.14443 96.5288 6.62896 96.7143 5.59802L97.1783 3.12375H99.7144V7.14443H105.776V9.92798H99.7144V17.4126C99.7144 18.2168 99.8897 18.7838 100.24 19.1137C100.611 19.423 101.24 19.5776 102.127 19.5776H105.714V22.4849H101.354Z" fill="#240257"></path>
<path d="M81.3241 22.856C79.8395 22.856 78.5302 22.5261 77.3962 21.8663C76.2622 21.1859 75.3756 20.2477 74.7364 19.0519C74.0972 17.856 73.7776 16.4642 73.7776 14.8765C73.7776 13.2683 74.0869 11.8559 74.7054 10.6393C75.3446 9.42283 76.2312 8.47436 77.3653 7.79394C78.5199 7.11351 79.8499 6.7733 81.355 6.7733C82.8396 6.7733 84.118 7.11351 85.1901 7.79394C86.2623 8.45374 87.0871 9.34035 87.6644 10.4538C88.2624 11.5672 88.5613 12.794 88.5613 14.1342C88.5613 14.3404 88.5613 14.5672 88.5613 14.8147C88.5613 15.0415 88.551 15.2992 88.5304 15.5879H76.9941C77.0972 17.0106 77.5612 18.0931 78.3859 18.8354C79.2107 19.557 80.1797 19.9178 81.2932 19.9178C82.2623 19.9178 83.0252 19.722 83.5819 19.3302C84.1592 18.9178 84.5819 18.3611 84.8499 17.6601H88.1593C87.7881 19.124 87.0149 20.3612 85.8396 21.3715C84.6644 22.3612 83.1592 22.856 81.3241 22.856ZM81.3241 9.61871C80.3138 9.61871 79.4168 9.92799 78.6333 10.5466C77.8498 11.1445 77.3447 11.9899 77.1178 13.0827H85.2829C85.2005 12.0517 84.7984 11.2167 84.0767 10.5775C83.3551 9.9383 82.4375 9.61871 81.3241 9.61871Z" fill="#240257"></path>
<path d="M55.4182 22.4849V19.6395H60.5523V4.08253C60.5523 3.40211 60.2224 3.0619 59.5626 3.0619H55.8512V0.216492H60.1502C61.3461 0.216492 62.2534 0.536085 62.8719 1.17527C63.5111 1.79384 63.8307 2.70107 63.8307 3.89696V19.6395H68.9958V22.4849H55.4182Z" fill="#240257"></path>
<path d="M36.8733 22.4849V19.6395H42.0074V4.08253C42.0074 3.40211 41.6775 3.0619 41.0177 3.0619H37.3063V0.216492H41.6053C42.8012 0.216492 43.7085 0.536085 44.327 1.17527C44.9662 1.79384 45.2858 2.70107 45.2858 3.89696V19.6395H50.4508V22.4849H36.8733Z" fill="#240257"></path>
<path d="M25.1945 4.79388C24.4729 4.79388 23.8646 4.56707 23.3698 4.11346C22.8955 3.63922 22.6584 3.06189 22.6584 2.38147C22.6584 1.70104 22.8955 1.13402 23.3698 0.680408C23.8646 0.226793 24.4729 -1.52588e-05 25.1945 -1.52588e-05C25.9368 -1.52588e-05 26.5451 0.226793 27.0193 0.680408C27.5142 1.13402 27.7616 1.70104 27.7616 2.38147C27.7616 3.06189 27.5142 3.63922 27.0193 4.11346C26.5451 4.56707 25.9368 4.79388 25.1945 4.79388ZM19.0398 22.4849V19.6395H23.8646V11.0105C23.8646 10.3301 23.5347 9.98984 22.8749 9.98984H19.4728V7.14443H23.4625C24.7409 7.14443 25.6688 7.44341 26.2461 8.04136C26.844 8.61868 27.143 9.54653 27.143 10.8249V19.6395H31.9678V22.4849H19.0398Z" fill="#240257"></path>
<path d="M0 22.4849V0.835068H7.08259C8.77334 0.835068 10.1651 1.12373 11.2579 1.70106C12.3713 2.27839 13.1961 3.06191 13.7322 4.05162C14.2889 5.0207 14.5672 6.12382 14.5672 7.36095C14.5672 8.76303 14.2064 10.0105 13.4848 11.1033C12.7837 12.1755 11.7012 12.959 10.2373 13.4538L14.7837 22.4849H10.9796L6.83516 13.9178H3.2784V22.4849H0ZM3.2784 10.9486H6.89702C8.38158 10.9486 9.46407 10.6187 10.1445 9.95893C10.8455 9.29913 11.1961 8.43313 11.1961 7.36095C11.1961 6.26815 10.8558 5.40215 10.1754 4.76297C9.495 4.10316 8.39189 3.77326 6.86609 3.77326H3.2784V10.9486Z" fill="#240257"></path>
</svg>