<svg xmlns="http://www.w3.org/2000/svg" id="Layer_1" data-name="Layer 1" width="121" height="30" version="1.1" viewBox="0 0 121 30">
  <defs>
    <style>
      .cls-1 {
        fill: #161616;
        stroke-width: 0px;
      }
    </style>
  </defs>
  <path class="cls-1" d="M53.7,25.3l-1.5-5.2c-.2-.9-.5-1.6-.8-2-.3-.4-.7-.7-1.1-.9-.3-.1-.6-.2-1-.2.4-.2.7-.4,1.1-.6,1-.6,1.8-1.4,2.5-2.5.7-1.1,1-2.3,1-3.8,0-2.5-.8-4.3-2.4-5.5-1.6-1.1-3.7-1.7-6.1-1.7h-9.8c.4.9.7,2.1.9,3.4.2,1.1.3,2.3.3,3.5v12.6c0,1.2,0,2.4-.3,3.5-.2,1.1-.5,2.3-.8,3.4h7.9c-.4-1.5-.7-2.8-.9-3.9-.1-1-.2-2-.2-3v-4.2c.7,0,1.4,0,2,0,.3,0,.6.3.9.6.3.4.6,1.1.9,2.1l2.4,8.4h7.2c-.5-.7-.9-1.3-1.2-2-.3-.6-.6-1.3-.8-2h0ZM42.5,16.6v-8.2c0-1.4,0-2.7,0-3.8.4,0,.8,0,1.2,0,1.3,0,2.3.5,3.1,1.6.8,1.1,1.2,2.6,1.2,4.5,0,.4,0,.7,0,1,0,1.4-.3,2.4-.7,3.1-.4.7-.9,1.2-1.6,1.4-.7.2-1.7.4-2.8.4h-.3Z"/>
  <path class="cls-1" d="M68.5,9.6c-1.3-.9-2.8-1.3-4.3-1.3s-3.3.4-4.7,1.3c-1.4.9-2.4,2.1-3.2,3.8-.7,1.6-1.1,3.5-1.1,5.7s.4,4,1.1,5.6c.8,1.6,1.8,2.8,3.1,3.7,1.3.9,2.7,1.3,4.3,1.3s3.4-.4,4.7-1.3c1.3-.9,2.4-2.1,3.1-3.8.7-1.6,1.1-3.5,1.1-5.7s-.4-4-1.1-5.7c-.7-1.6-1.8-2.8-3.1-3.7h0ZM66.5,24.7c-.2,1-.4,1.8-.8,2.3-.4.5-.8.8-1.4.8-1.1,0-1.9-1-2.4-3.1-.6-2.1-.8-4.6-.8-7.4s0-2.7.2-3.7c.1-1,.4-1.8.8-2.3.4-.5.8-.8,1.5-.8,1,0,1.8,1,2.4,3.1.6,2.1.9,4.6.9,7.4s0,2.7-.2,3.7h0Z"/>
  <path class="cls-1" d="M85.4,8.5c-1.2,0-2.3.3-3.3.9-.8.5-1.4,1.2-1.9,2.1V.2c-1.9.8-4,1.6-6.5,2.5.4.9.7,1.8.8,2.8,0,.6.1,1.6.1,2.8v21h3l1.3-1.7c.5.7,1.1,1.2,1.8,1.5.7.3,1.4.5,2.1.5,1.8,0,3.3-.5,4.7-1.5,1.3-1,2.4-2.4,3.1-4.2.8-1.8,1.1-3.9,1.1-6.3s-.6-5.3-1.7-6.8c-1.2-1.5-2.6-2.2-4.5-2.2h0ZM85.4,24.4c-.3,1.2-.6,2-1,2.5-.4.5-.9.7-1.5.7s-1.3-.3-1.8-.9c-.6-.6-.8-1.4-.8-2.5v-11.3c.8-.7,1.6-1,2.4-1s1.8.6,2.3,1.8c.5,1.2.8,3.2.8,6s-.1,3.5-.4,4.6h0Z"/>
  <path class="cls-1" d="M99.5,23.8v-15.4c-2.1,1-4.3,1.8-6.5,2.4.4.9.7,1.7.8,2.6.1.6.2,1.5.2,2.6v7.8c0,1.2,0,2.1-.2,2.8-.1.7-.4,1.6-.8,2.7h7.4c-.4-1.1-.7-2.1-.8-2.9,0-.5-.1-1.4-.1-2.6h0Z"/>
  <path class="cls-1" d="M96.7,7.2c1.1,0,1.9-.3,2.6-1,.7-.6,1-1.5,1-2.4s-.3-1.8-1-2.5c-.7-.6-1.5-1-2.6-1s-1.8.3-2.5,1c-.7.6-1,1.5-1,2.5s.3,1.8,1,2.4c.7.6,1.5,1,2.5,1Z"/>
  <path class="cls-1" d="M119.3,26.4c-.2-1.2-.3-2.5-.3-4.1v-8.2c0-.5,0-.8,0-1-.1-1.5-.6-2.7-1.3-3.5-.7-.8-1.8-1.2-3.1-1.2s-2.5.4-3.6,1.3c-.8.6-1.5,1.5-2,2.5,0-.7-.1-1.4-.4-2.2-.2-.7-.4-1.3-.6-1.7-1,.5-2.3,1.1-4,1.9l-1.5.6c.4.8.7,1.5.8,2.2.1.5.2,1.4.2,2.7v7.8c0,1.3,0,2.3-.2,3.1-.1.8-.4,1.7-.8,2.6h7.4c-.4-.9-.6-1.7-.7-2.4-.1-.8-.2-1.9-.2-3.3v-10.1c.3-.4.7-.8,1.1-1,.5-.3.9-.4,1.4-.4s1,.1,1.3.4c.3.3.5.8.6,1.5,0,.3,0,.6,0,1v7.5c0,1,0,1.9,0,2.8,0,.9.1,1.7.2,2.4,0,.5.1,1,.2,1.6h6.1c-.4-1-.6-1.9-.8-2.8h0Z"/>
  <path class="cls-1" d="M25.1,2c-3.9,0-6.3,3.2-7.1,4.7l-.8,1.5h-1.3l.8-1.6c1.9-3.6-1.2-6.2-4.2-6.2H0l4.6,15.9h4.2c1.8,0,3.2,1,3.2,2.6s-.2,1.1-.4,1.6l-4.5,8.7h8.3l.5-.9c.9-1.7.6-3.7-1.1-4.5h0c0-.1,3.3-.1,3.3-.1,6.3,0,11.9-5.3,11.9-12.4v-2.8c0-1.7,2.1-3,2.9-3.4v-.5l-3.1-.4s-1.3-2.1-4.6-2.1h0ZM26,7.2c-.7,0-1.3-.6-1.3-1.3s.6-1.3,1.3-1.3,1.3.6,1.3,1.3-.6,1.3-1.3,1.3Z"/>
</svg>