<?xml version="1.0" encoding="UTF-8"?>
<svg version="1.1" xmlns="http://www.w3.org/2000/svg" width="180" height="180">
<path d="M0 0 C59.4 0 118.8 0 180 0 C180 59.4 180 118.8 180 180 C120.6 180 61.2 180 0 180 C0 120.6 0 61.2 0 0 Z " fill="#FEFEFE" transform="translate(0,0)"/>
<path d="M0 0 C0 6.27 0 12.54 0 19 C1.32 19 2.64 19 4 19 C4 12.73 4 6.46 4 0 C11.71548532 1.10221219 13.98616326 2.54575868 19 8 C22.34799017 12.81273587 22.81706485 17.30872073 22 23 C20.31617359 29.41760256 17.38446537 33.12029779 12 36.90625 C7.61118982 39.30638057 2.92222906 39.51618882 -2 39 C-8.57427802 36.77143118 -13.18393099 34.10245517 -16.3125 27.8125 C-18.48253629 22.38740927 -19.41887463 17.35095923 -17.08203125 11.83203125 C-13.09989684 4.96317157 -8.19761466 0 0 0 Z " fill="#030303" transform="translate(88,112)"/>
<path d="M0 0 C4.06720671 2.74708145 7.2263175 6.71910012 8.72265625 11.41796875 C10.12211675 19.16063607 8.49597632 24.41395624 4.45703125 31.09375 C0.03651974 35.39793226 -5.32138823 37.58513945 -11.48046875 37.96875 C-17.86549737 37.64559846 -22.59298546 34.07464193 -26.85546875 29.53125 C-28.91796875 26.40625 -28.91796875 26.40625 -29.91796875 19.40625 C-23.64796875 19.40625 -17.37796875 19.40625 -10.91796875 19.40625 C-10.91796875 18.08625 -10.91796875 16.76625 -10.91796875 15.40625 C-17.18796875 15.40625 -23.45796875 15.40625 -29.91796875 15.40625 C-28.81575656 7.69076468 -27.37221007 5.42008674 -21.91796875 0.40625 C-14.99166062 -4.41205131 -7.32002728 -3.5895055 0 0 Z " fill="#020202" transform="translate(141.91796875,72.59375)"/>
<path d="M0 0 C5.60575511 4.79567489 6.91552224 7.40865571 8 15 C1.73 15 -4.54 15 -11 15 C-11 16.32 -11 17.64 -11 19 C-4.73 19 1.54 19 8 19 C6.91552224 26.59134429 5.60575511 29.20432511 0 34 C-4.76970411 36.80021768 -9.49394083 37.600661 -15 37 C-21.83284864 34.6438453 -26.72218299 31.55563403 -30 25 C-31.97053685 19.80494831 -31.48940522 14.44374541 -29.75 9.3125 C-26.65889165 3.46147348 -23.44545037 -0.37000153 -17.125 -2.6875 C-10.89862628 -3.60314319 -5.45627134 -3.20329042 0 0 Z " fill="#030303" transform="translate(60,73)"/>
<path d="M0 0 C4.51893031 4.26787862 6.03486034 8.32818438 6.5 14.375 C5.97626334 22.23104988 3.42746546 26.55811517 -2.421875 31.77734375 C-4.75 33.125 -4.75 33.125 -11.75 34.125 C-11.75 27.855 -11.75 21.585 -11.75 15.125 C-13.07 15.125 -14.39 15.125 -15.75 15.125 C-15.75 21.395 -15.75 27.665 -15.75 34.125 C-23.34134429 33.04052224 -25.95432511 31.73075511 -30.75 26.125 C-33.55021768 21.35529589 -34.350661 16.63105917 -33.75 11.125 C-31.3938453 4.29215136 -28.30563403 -0.59718299 -21.75 -3.875 C-13.90855395 -6.84934161 -6.6306078 -4.52086895 0 0 Z " fill="#030303" transform="translate(103.75,33.875)"/>
<path d="M0 0 C0.66 0.99 1.32 1.98 2 3 C0.82244141 3.03867188 0.82244141 3.03867188 -0.37890625 3.078125 C-7.01750706 3.43652799 -11.72202242 3.82160108 -17 8 C-19.04643721 10.73672798 -21 13.47590731 -21 17 C-15.72 17 -10.44 17 -5 17 C-5 17.33 -5 17.66 -5 18 C-10.94 18 -16.88 18 -23 18 C-21.89778781 10.28451468 -20.45424132 8.01383674 -15 3 C-10.46455521 -0.15509203 -5.44156561 -1.11007938 0 0 Z " fill="#151515" transform="translate(135,70)"/>
<path d="M0 0 C2.56846661 2.49712031 3.83752577 4.91650705 5.25 8.1875 C4.26 8.1875 3.27 8.1875 2.25 8.1875 C1.816875 6.82625 1.816875 6.82625 1.375 5.4375 C-1.69958783 0.7351892 -5.39240561 -0.50503657 -10.75 -1.8125 C-14.11872564 -2.09589347 -17.38130219 -2.07052792 -20.75 -1.8125 C-21.08 -2.4725 -21.41 -3.1325 -21.75 -3.8125 C-13.63860537 -6.51629821 -6.93144911 -4.56845509 0 0 Z " fill="#1B1B1B" transform="translate(103.75,33.8125)"/>
<path d="M0 0 C-1.12907201 3.38721604 -2.51444325 4.51444325 -5 7 C-7.10027167 10.34989568 -7.37010707 13.34164177 -7.625 17.25 C-7.69976562 18.32765625 -7.77453125 19.4053125 -7.8515625 20.515625 C-7.90054688 21.33546875 -7.94953125 22.1553125 -8 23 C-11 21 -11 21 -11.46875 19.1171875 C-11.57508298 11.48779593 -8.72864989 7.11845702 -3.8125 1.5 C-2 0 -2 0 0 0 Z " fill="#202020" transform="translate(81,114)"/>
<path d="M0 0 C0.7425 0.61875 1.485 1.2375 2.25 1.875 C7.63641729 6.03723154 11.69842012 6.3312416 18.41796875 6.65625 C19.27003906 6.7696875 20.12210938 6.883125 21 7 C21.33 7.66 21.66 8.32 22 9 C17.19290292 10.60236569 12.41569066 11.10102908 7.703125 8.953125 C4.83766069 7.17528218 2.38714165 5.38714165 0 3 C0 2.01 0 1.02 0 0 Z " fill="#181818" transform="translate(116,100)"/>
<path d="M0 0 C0.33 0 0.66 0 1 0 C1 5.94 1 11.88 1 18 C-6 17 -6 17 -9 15 C-9 14.34 -9 13.68 -9 13 C-6.03 13.99 -3.06 14.98 0 16 C0 10.72 0 5.44 0 0 Z " fill="#171717" transform="translate(87,50)"/>
<path d="M0 0 C3 1 3 1 4.1875 2.75 C5 5 5 5 5 10 C-0.94 10 -6.88 10 -13 10 C-13 9.67 -13 9.34 -13 9 C-7.72 9 -2.44 9 3 9 C2.01 6.03 1.02 3.06 0 0 Z " fill="#1B1B1B" transform="translate(63,78)"/>
<path d="M0 0 C-1 1 -1 1 -4.59765625 1.09765625 C-6.08596867 1.0909822 -7.57426432 1.07902183 -9.0625 1.0625 C-9.82111328 1.05798828 -10.57972656 1.05347656 -11.36132812 1.04882812 C-13.24091871 1.0370068 -15.12046899 1.01907078 -17 1 C-12.62285277 -3.37714723 -5.11047193 -3.27070204 0 0 Z " fill="#191919" transform="translate(56,72)"/>
<path d="M0 0 C5.94 0 11.88 0 18 0 C18 0.33 18 0.66 18 1 C12.72 1 7.44 1 2 1 C2.33 1.66 2.66 2.32 3 3 C3.039992 4.99960012 3.04346799 7.00047242 3 9 C1 7 1 7 0 0 Z " fill="#161616" transform="translate(112,92)"/>
<path d="M0 0 C1.19109375 -0.03867188 1.19109375 -0.03867188 2.40625 -0.078125 C3.0971875 0.03015625 3.788125 0.1384375 4.5 0.25 C5.16 1.24 5.82 2.23 6.5 3.25 C2.54 3.25 -1.42 3.25 -5.5 3.25 C-5.83 2.59 -6.16 1.93 -6.5 1.25 C-4.15897141 0.07948571 -2.60647047 0.0507754 0 0 Z " fill="#212121" transform="translate(130.5,69.75)"/>
<path d="M0 0 C-4.96073422 1.32286246 -9.91111512 1.08893197 -15 1 C-15.33 0.34 -15.66 -0.32 -16 -1 C-10.84587819 -2.7180406 -4.64196196 -3.09464131 0 0 Z " fill="#141414" transform="translate(98,31)"/>
<path d="M0 0 C1.32 0.33 2.64 0.66 4 1 C2.8553125 1.7734375 2.8553125 1.7734375 1.6875 2.5625 C-1.61575607 5.55847644 -2.48625726 7.85712514 -4 12 C-4.66 10.68 -5.32 9.36 -6 8 C-4.02 5.36 -2.04 2.72 0 0 Z " fill="#1B1B1B" transform="translate(36,74)"/>
<path d="M0 0 C0.33 0 0.66 0 1 0 C1 3.96 1 7.92 1 12 C0.01 12.495 0.01 12.495 -1 13 C-2.17881287 9.31620978 -2.21358801 5.84458427 -2 2 C-1.34 1.34 -0.68 0.68 0 0 Z " fill="#191919" transform="translate(72,43)"/>
<path d="M0 0 C0.33 0 0.66 0 1 0 C1.20496094 0.75925781 1.40992187 1.51851563 1.62109375 2.30078125 C1.89050781 3.29464844 2.15992188 4.28851563 2.4375 5.3125 C2.83775391 6.79169922 2.83775391 6.79169922 3.24609375 8.30078125 C3.78079425 10.21517526 4.37144538 12.11433615 5 14 C4.01 14.495 4.01 14.495 3 15 C-0.77755334 10.27805833 -0.30096975 5.74071928 0 0 Z " fill="#191919" transform="translate(30,88)"/>
<path d="M0 0 C-0.33 0.99 -0.66 1.98 -1 3 C-5.35665479 4.67563646 -8.49537986 5.36503641 -13 4 C-13 3.67 -13 3.34 -13 3 C-11.2092015 2.49689942 -9.41733089 1.99761372 -7.625 1.5 C-6.62726563 1.2215625 -5.62953125 0.943125 -4.6015625 0.65625 C-2 0 -2 0 0 0 Z " fill="#191919" transform="translate(101,146)"/>
<path d="M0 0 C0.99 0.33 1.98 0.66 3 1 C3.08096803 2.45742463 3.13917774 3.91612807 3.1875 5.375 C3.22230469 6.18710938 3.25710937 6.99921875 3.29296875 7.8359375 C3.19628906 8.55007812 3.09960938 9.26421875 3 10 C2.01 10.66 1.02 11.32 0 12 C0 8.04 0 4.08 0 0 Z " fill="#272727" transform="translate(107,125)"/>
<path d="M0 0 C0.99 0.33 1.98 0.66 3 1 C4.67563646 5.35665479 5.36503641 8.49537986 4 13 C3.67 13 3.34 13 3 13 C2.01 8.71 1.02 4.42 0 0 Z " fill="#191919" transform="translate(146,79)"/>
<path d="M0 0 C0.66 0 1.32 0 2 0 C0.86848239 3.39455284 -0.4287232 4.57997478 -3 7 C-3.86625 7.86625 -3.86625 7.86625 -4.75 8.75 C-5.36875 9.36875 -5.36875 9.36875 -6 10 C-6.33 9.34 -6.66 8.68 -7 8 C-5.88200014 6.66079162 -4.75538103 5.32877444 -3.625 4 C-2.68527344 2.88625 -2.68527344 2.88625 -1.7265625 1.75 C-1.15679687 1.1725 -0.58703125 0.595 0 0 Z " fill="#121212" transform="translate(79,114)"/>
<path d="M0 0 C2.125 -0.4375 2.125 -0.4375 5 0 C7.276147 2.12689146 9.1458722 4.5023433 11 7 C10.34 7.66 9.68 8.32 9 9 C8.443125 7.8553125 8.443125 7.8553125 7.875 6.6875 C5.6369085 3.47956885 3.55788567 2.5022184 0 1 C0 0.67 0 0.34 0 0 Z " fill="#161616" transform="translate(96,114)"/>
<path d="M0 0 C3 1 3 1 4.1875 2.75 C5.10819096 5.29960574 5.14948718 7.30923081 5 10 C2.35534962 6.8745041 1.15585285 3.91211733 0 0 Z " fill="#151515" transform="translate(63,78)"/>
<path d="M0 0 C-1.33332095 3.99996286 -3.4957827 4.83782337 -7 7 C-7 6.01 -7 5.02 -7 4 C-2.65714286 0 -2.65714286 0 0 0 Z " fill="#191919" transform="translate(82,31)"/>
</svg>
